# MagicaVoxel @ Ephtracy

# group
o 

# material
mtllib arch.mtl
usemtl palette

# normals
vn -1 0 0
vn 1 0 0
vn 0 0 1
vn 0 0 -1
vn 0 -1 0
vn 0 1 0

# texcoords
vt 0.650391 0.5
vt 0.974609 0.5

# verts
v 2.5 1.9 -0.3
v 2.5 1.9 -0.4
v 2.5 2 -0.3
v 2.5 2 -0.4
v 2.6 1.9 0.7
v 2.6 1.9 0.6
v 2.6 1.9 0.5
v 2.6 1.9 0.1
v 2.6 1.9 0
v 2.6 1.9 -0.4
v 2.6 1.9 -0.5
v 2.6 2 0.7
v 2.6 2 0.6
v 2.6 2 -0.2
v 2.6 2 -0.3
v 2.6 2 -0.4
v 2.6 2 -0.5
v 2.6 2.1 0.5
v 2.6 2.1 0.4
v 2.6 2.1 -0.2
v 2.6 2.1 -0.3
v 2.6 2.2 0.6
v 2.6 2.2 0.5
v 2.6 2.2 -0.4
v 2.6 2.2 -0.5
v 2.6 2.3 0.6
v 2.6 2.3 0.5
v 2.6 2.3 0.1
v 2.6 2.3 0
v 2.6 2.3 -0.4
v 2.6 2.3 -0.5
v 2.6 2.4 0.6
v 2.6 2.4 0.5
v 2.6 2.5 0.8
v 2.6 2.5 0.6
v 2.6 2.5 0.4
v 2.6 2.5 0.3
v 2.6 2.5 0.2
v 2.6 2.5 0.1
v 2.6 2.5 -0.2
v 2.6 2.5 -0.3
v 2.6 2.5 -0.4
v 2.6 2.5 -0.5
v 2.6 2.5 -0.7
v 2.6 2.6 0.8
v 2.6 2.6 0.4
v 2.6 2.6 0.3
v 2.6 2.6 0.2
v 2.6 2.6 -0.1
v 2.6 2.6 -0.2
v 2.6 2.6 -0.3
v 2.6 2.6 -0.7
v 2.6 2.7 0.4
v 2.6 2.7 0.3
v 2.6 2.7 0.2
v 2.6 2.7 0.1
v 2.6 2.7 -0.2
v 2.6 2.7 -0.3
v 2.6 2.8 0.3
v 2.6 2.8 0.2
v 2.6 2.8 -0.1
v 2.6 2.8 -0.2
v 2.6 2.8 -0.3
v 2.7 1.9 0.5
v 2.7 1.9 0.4
v 2.7 1.9 0
v 2.7 1.9 -0.1
v 2.7 2 0
v 2.7 2 -0.1
v 2.7 2 -0.4
v 2.7 2 -0.5
v 2.7 2.1 0.5
v 2.7 2.1 0.4
v 2.7 2.1 0.3
v 2.7 2.1 -0.2
v 2.7 2.1 -0.3
v 2.7 2.2 -0.2
v 2.7 2.2 -0.3
v 2.7 2.2 -0.4
v 2.7 2.2 -0.5
v 2.7 2.3 0.6
v 2.7 2.3 0.5
v 2.7 2.3 0.1
v 2.7 2.3 0
v 2.7 2.4 0.6
v 2.7 2.4 0.5
v 2.7 2.4 0.1
v 2.7 2.4 0
v 2.7 2.4 -0.1
v 2.7 2.4 -0.2
v 2.7 2.5 0.9
v 2.7 2.5 0.8
v 2.7 2.5 0.4
v 2.7 2.5 0.3
v 2.7 2.5 -0.2
v 2.7 2.5 -0.7
v 2.7 2.5 -0.8
v 2.7 2.6 0.9
v 2.7 2.6 0.8
v 2.7 2.6 0
v 2.7 2.6 -0.1
v 2.7 2.6 -0.2
v 2.7 2.6 -0.7
v 2.7 2.6 -0.8
v 2.7 2.7 0
v 2.7 2.7 -0.1
v 2.7 1.9 0.7
v 2.7 1.9 0.6
v 2.7 1.9 0.5
v 2.7 1.9 -0.3
v 2.7 1.9 -0.4
v 2.7 2 0.7
v 2.7 2 0.6
v 2.7 2 0.5
v 2.7 2 -0.2
v 2.7 2 -0.3
v 2.7 2 -0.4
v 2.7 2.1 -0.2
v 2.7 2.1 -0.3
v 2.7 2.3 -0.4
v 2.7 2.3 -0.5
v 2.7 2.5 -0.4
v 2.7 2.5 -0.5
v 2.7 2.6 -0.4
v 2.7 2.6 -0.5
v 2.7 2.7 -0.2
v 2.7 2.7 -0.3
v 2.7 2.8 -0.2
v 2.7 2.8 -0.3
v 2.8 1.9 0.5
v 2.8 1.9 0.4
v 2.8 1.9 0.1
v 2.8 1.9 0
v 2.8 1.9 -0.1
v 2.8 1.9 -0.4
v 2.8 1.9 -0.5
v 2.8 2 0.6
v 2.8 2 0.5
v 2.8 2 0
v 2.8 2 -0.1
v 2.8 2 -0.3
v 2.8 2 -0.4
v 2.8 2.1 0.4
v 2.8 2.1 0.3
v 2.8 2.1 -0.2
v 2.8 2.1 -0.3
v 2.8 2.1 -0.4
v 2.8 2.2 0.5
v 2.8 2.2 0.4
v 2.8 2.2 -0.2
v 2.8 2.2 -0.3
v 2.8 2.2 -0.4
v 2.8 2.3 0.6
v 2.8 2.3 0.5
v 2.8 2.3 0.4
v 2.8 2.3 0.1
v 2.8 2.3 0
v 2.8 2.3 -0.3
v 2.8 2.3 -0.4
v 2.8 2.3 -0.5
v 2.8 2.4 0.6
v 2.8 2.4 0.5
v 2.8 2.4 0.1
v 2.8 2.4 0
v 2.8 2.4 -0.1
v 2.8 2.4 -0.2
v 2.8 2.5 0.9
v 2.8 2.5 0.6
v 2.8 2.5 0.4
v 2.8 2.5 0.3
v 2.8 2.5 0.2
v 2.8 2.5 0.1
v 2.8 2.5 -0.2
v 2.8 2.5 -0.3
v 2.8 2.5 -0.5
v 2.8 2.5 -0.8
v 2.8 2.6 0.9
v 2.8 2.6 0.4
v 2.8 2.6 0.3
v 2.8 2.6 0.2
v 2.8 2.6 0
v 2.8 2.6 -0.1
v 2.8 2.6 -0.2
v 2.8 2.6 -0.3
v 2.8 2.6 -0.4
v 2.8 2.6 -0.5
v 2.8 2.6 -0.8
v 2.8 2.7 0.4
v 2.8 2.7 0.3
v 2.8 2.7 0.2
v 2.8 2.7 0.1
v 2.8 2.7 0
v 2.8 2.7 -0.1
v 2.8 2.7 -0.2
v 2.8 2.7 -0.3
v 2.8 2.8 0.3
v 2.8 2.8 0.2
v 2.8 2.8 -0.1
v 2.8 2.8 -0.2
v 2.9 2.2 0.5
v 2.9 2.2 0.4
v 2.9 2.2 -0.3
v 2.9 2.2 -0.4
v 2.9 2.3 0.6
v 2.9 2.3 0.5
v 2.9 2.3 0.4
v 2.9 2.3 -0.3
v 2.9 2.3 -0.4
v 2.9 2.4 0.6
v 2.9 2.4 0.5
v 2.9 2.5 0.4
v 2.9 2.5 0.3
v 2.9 2.6 0.4
v 2.9 2.6 0.3
v 2.9 2.6 -0.1
v 2.9 2.6 -0.2
v 2.9 2.7 -0.1
v 2.9 2.7 -0.2
v 2.7 2.5 0.9
v 2.7 2.6 0.9
v 2.8 2.5 0.9
v 2.8 2.6 0.9
v 2.6 2.5 0.8
v 2.6 2.6 0.8
v 2.7 2.5 0.8
v 2.7 2.6 0.8
v 2.6 1.9 0.7
v 2.6 2 0.7
v 2.7 1.9 0.7
v 2.7 2 0.7
v 2.6 2 0.6
v 2.6 2.2 0.6
v 2.6 2.3 0.6
v 2.6 2.4 0.6
v 2.6 2.5 0.6
v 2.7 2 0.6
v 2.7 2.2 0.6
v 2.7 2.3 0.6
v 2.7 2.4 0.6
v 2.8 2 0.6
v 2.8 2.3 0.6
v 2.8 2.4 0.6
v 2.8 2.5 0.6
v 2.9 2.3 0.6
v 2.9 2.4 0.6
v 2.6 2.3 0.5
v 2.6 2.4 0.5
v 2.7 1.9 0.5
v 2.7 2 0.5
v 2.7 2.3 0.5
v 2.7 2.4 0.5
v 2.8 1.9 0.5
v 2.8 2 0.5
v 2.8 2.2 0.5
v 2.8 2.3 0.5
v 2.9 2.2 0.5
v 2.9 2.3 0.5
v 2.6 2.6 0.4
v 2.6 2.7 0.4
v 2.7 2.6 0.4
v 2.7 2.7 0.4
v 2.8 2.5 0.4
v 2.8 2.6 0.4
v 2.8 2.7 0.4
v 2.9 2.5 0.4
v 2.9 2.6 0.4
v 2.6 2.7 0.3
v 2.6 2.8 0.3
v 2.7 2.7 0.3
v 2.8 2.7 0.3
v 2.8 2.8 0.3
v 2.6 2.5 0.2
v 2.6 2.6 0.2
v 2.8 2.5 0.2
v 2.8 2.6 0.2
v 2.6 1.9 0.1
v 2.6 2.3 0.1
v 2.7 2.3 0.1
v 2.7 2.4 0.1
v 2.8 1.9 0.1
v 2.8 2.3 0.1
v 2.8 2.4 0.1
v 2.7 2.6 0
v 2.7 2.7 0
v 2.8 2.6 0
v 2.8 2.7 0
v 2.6 2.6 -0.1
v 2.6 2.8 -0.1
v 2.7 2.4 -0.1
v 2.7 2.6 -0.1
v 2.7 2.7 -0.1
v 2.8 2.4 -0.1
v 2.8 2.6 -0.1
v 2.8 2.7 -0.1
v 2.8 2.8 -0.1
v 2.9 2.6 -0.1
v 2.9 2.7 -0.1
v 2.6 2 -0.2
v 2.6 2.1 -0.2
v 2.6 2.5 -0.2
v 2.6 2.6 -0.2
v 2.7 2 -0.2
v 2.7 2.1 -0.2
v 2.7 2.2 -0.2
v 2.7 2.5 -0.2
v 2.7 2.6 -0.2
v 2.8 2.1 -0.2
v 2.8 2.2 -0.2
v 2.5 1.9 -0.3
v 2.5 2 -0.3
v 2.6 1.9 -0.3
v 2.6 2 -0.3
v 2.6 2.1 -0.3
v 2.6 2.5 -0.3
v 2.7 1.9 -0.3
v 2.7 2 -0.3
v 2.7 2.1 -0.3
v 2.7 2.2 -0.3
v 2.8 2 -0.3
v 2.8 2.1 -0.3
v 2.8 2.2 -0.3
v 2.8 2.3 -0.3
v 2.8 2.5 -0.3
v 2.9 2.2 -0.3
v 2.9 2.3 -0.3
v 2.7 1.9 -0.4
v 2.7 2 -0.4
v 2.8 1.9 -0.4
v 2.8 2 -0.4
v 2.7 2.5 -0.5
v 2.7 2.6 -0.5
v 2.8 2.5 -0.5
v 2.8 2.6 -0.5
v 2.6 1.9 0.5
v 2.6 2.1 0.5
v 2.7 1.9 0.5
v 2.7 2.1 0.5
v 2.8 2.3 0.5
v 2.8 2.4 0.5
v 2.9 2.3 0.5
v 2.9 2.4 0.5
v 2.6 2.1 0.4
v 2.6 2.5 0.4
v 2.7 1.9 0.4
v 2.7 2.1 0.4
v 2.7 2.5 0.4
v 2.8 1.9 0.4
v 2.8 2.1 0.4
v 2.8 2.2 0.4
v 2.8 2.3 0.4
v 2.9 2.2 0.4
v 2.9 2.3 0.4
v 2.6 2.5 0.3
v 2.6 2.6 0.3
v 2.7 2.1 0.3
v 2.7 2.5 0.3
v 2.8 2.1 0.3
v 2.8 2.5 0.3
v 2.8 2.6 0.3
v 2.9 2.5 0.3
v 2.9 2.6 0.3
v 2.6 2.7 0.2
v 2.6 2.8 0.2
v 2.8 2.7 0.2
v 2.8 2.8 0.2
v 2.6 2.5 0.1
v 2.6 2.7 0.1
v 2.8 2.5 0.1
v 2.8 2.7 0.1
v 2.6 1.9 0
v 2.6 2.3 0
v 2.7 1.9 0
v 2.7 2 0
v 2.7 2.3 0
v 2.7 2.4 0
v 2.8 2 0
v 2.8 2.3 0
v 2.8 2.4 0
v 2.7 1.9 -0.1
v 2.7 2 -0.1
v 2.8 1.9 -0.1
v 2.8 2 -0.1
v 2.7 2.4 -0.2
v 2.7 2.5 -0.2
v 2.7 2.7 -0.2
v 2.7 2.8 -0.2
v 2.8 2.4 -0.2
v 2.8 2.5 -0.2
v 2.8 2.6 -0.2
v 2.8 2.7 -0.2
v 2.8 2.8 -0.2
v 2.9 2.6 -0.2
v 2.9 2.7 -0.2
v 2.6 2.6 -0.3
v 2.6 2.7 -0.3
v 2.6 2.8 -0.3
v 2.7 2.7 -0.3
v 2.7 2.8 -0.3
v 2.8 2.6 -0.3
v 2.8 2.7 -0.3
v 2.5 1.9 -0.4
v 2.5 2 -0.4
v 2.6 1.9 -0.4
v 2.6 2 -0.4
v 2.6 2.2 -0.4
v 2.7 2 -0.4
v 2.7 2.2 -0.4
v 2.7 2.3 -0.4
v 2.7 2.5 -0.4
v 2.7 2.6 -0.4
v 2.8 2.2 -0.4
v 2.8 2.3 -0.4
v 2.8 2.6 -0.4
v 2.9 2.2 -0.4
v 2.9 2.3 -0.4
v 2.6 1.9 -0.5
v 2.6 2 -0.5
v 2.6 2.2 -0.5
v 2.6 2.3 -0.5
v 2.6 2.5 -0.5
v 2.7 2 -0.5
v 2.7 2.2 -0.5
v 2.7 2.3 -0.5
v 2.7 2.5 -0.5
v 2.8 1.9 -0.5
v 2.8 2.3 -0.5
v 2.6 2.5 -0.7
v 2.6 2.6 -0.7
v 2.7 2.5 -0.7
v 2.7 2.6 -0.7
v 2.7 2.5 -0.8
v 2.7 2.6 -0.8
v 2.8 2.5 -0.8
v 2.8 2.6 -0.8
v 2.6 1.9 0.7
v 2.7 1.9 0.7
v 2.6 1.9 0.6
v 2.7 1.9 0.6
v 2.6 1.9 0.5
v 2.7 1.9 0.5
v 2.8 1.9 0.5
v 2.7 1.9 0.4
v 2.8 1.9 0.4
v 2.6 1.9 0.1
v 2.8 1.9 0.1
v 2.6 1.9 0
v 2.7 1.9 0
v 2.8 1.9 0
v 2.7 1.9 -0.1
v 2.8 1.9 -0.1
v 2.5 1.9 -0.3
v 2.6 1.9 -0.3
v 2.7 1.9 -0.3
v 2.5 1.9 -0.4
v 2.6 1.9 -0.4
v 2.7 1.9 -0.4
v 2.8 1.9 -0.4
v 2.6 1.9 -0.5
v 2.8 1.9 -0.5
v 2.7 2 0.6
v 2.8 2 0.6
v 2.7 2 0.5
v 2.8 2 0.5
v 2.6 2 -0.2
v 2.7 2 -0.2
v 2.6 2 -0.3
v 2.7 2 -0.3
v 2.8 2 -0.3
v 2.7 2 -0.4
v 2.8 2 -0.4
v 2.6 2.1 0.5
v 2.7 2.1 0.5
v 2.6 2.1 0.4
v 2.7 2.1 0.4
v 2.8 2.1 0.4
v 2.7 2.1 0.3
v 2.8 2.1 0.3
v 2.7 2.1 -0.2
v 2.8 2.1 -0.2
v 2.7 2.1 -0.3
v 2.8 2.1 -0.3
v 2.8 2.2 0.5
v 2.9 2.2 0.5
v 2.8 2.2 0.4
v 2.9 2.2 0.4
v 2.8 2.2 -0.3
v 2.9 2.2 -0.3
v 2.6 2.2 -0.4
v 2.7 2.2 -0.4
v 2.8 2.2 -0.4
v 2.9 2.2 -0.4
v 2.6 2.2 -0.5
v 2.7 2.2 -0.5
v 2.8 2.3 0.6
v 2.9 2.3 0.6
v 2.8 2.3 0.5
v 2.9 2.3 0.5
v 2.6 2.4 0.6
v 2.7 2.4 0.6
v 2.6 2.4 0.5
v 2.7 2.4 0.5
v 2.7 2.4 -0.1
v 2.8 2.4 -0.1
v 2.7 2.4 -0.2
v 2.8 2.4 -0.2
v 2.7 2.5 0.9
v 2.8 2.5 0.9
v 2.6 2.5 0.8
v 2.7 2.5 0.8
v 2.6 2.5 0.6
v 2.8 2.5 0.6
v 2.6 2.5 0.4
v 2.7 2.5 0.4
v 2.8 2.5 0.4
v 2.9 2.5 0.4
v 2.6 2.5 0.3
v 2.7 2.5 0.3
v 2.8 2.5 0.3
v 2.9 2.5 0.3
v 2.6 2.5 0.2
v 2.8 2.5 0.2
v 2.6 2.5 0.1
v 2.8 2.5 0.1
v 2.6 2.5 -0.2
v 2.7 2.5 -0.2
v 2.8 2.5 -0.2
v 2.6 2.5 -0.3
v 2.8 2.5 -0.3
v 2.6 2.5 -0.5
v 2.7 2.5 -0.5
v 2.8 2.5 -0.5
v 2.6 2.5 -0.7
v 2.7 2.5 -0.7
v 2.7 2.5 -0.8
v 2.8 2.5 -0.8
v 2.6 2.6 0.3
v 2.8 2.6 0.3
v 2.6 2.6 0.2
v 2.8 2.6 0.2
v 2.7 2.6 0
v 2.8 2.6 0
v 2.6 2.6 -0.1
v 2.7 2.6 -0.1
v 2.8 2.6 -0.1
v 2.9 2.6 -0.1
v 2.6 2.6 -0.2
v 2.7 2.6 -0.2
v 2.8 2.6 -0.2
v 2.9 2.6 -0.2
v 2.6 2 0.7
v 2.7 2 0.7
v 2.6 2 0.6
v 2.7 2 0.6
v 2.7 2 0
v 2.8 2 0
v 2.7 2 -0.1
v 2.8 2 -0.1
v 2.5 2 -0.3
v 2.6 2 -0.3
v 2.5 2 -0.4
v 2.6 2 -0.4
v 2.7 2 -0.4
v 2.6 2 -0.5
v 2.7 2 -0.5
v 2.6 2.1 -0.2
v 2.7 2.1 -0.2
v 2.6 2.1 -0.3
v 2.7 2.1 -0.3
v 2.7 2.2 -0.2
v 2.8 2.2 -0.2
v 2.7 2.2 -0.3
v 2.8 2.2 -0.3
v 2.6 2.3 0.6
v 2.7 2.3 0.6
v 2.6 2.3 0.5
v 2.7 2.3 0.5
v 2.8 2.3 0.5
v 2.9 2.3 0.5
v 2.8 2.3 0.4
v 2.9 2.3 0.4
v 2.6 2.3 0.1
v 2.7 2.3 0.1
v 2.6 2.3 0
v 2.7 2.3 0
v 2.8 2.3 -0.3
v 2.9 2.3 -0.3
v 2.7 2.3 -0.4
v 2.8 2.3 -0.4
v 2.9 2.3 -0.4
v 2.7 2.3 -0.5
v 2.8 2.3 -0.5
v 2.8 2.4 0.6
v 2.9 2.4 0.6
v 2.8 2.4 0.5
v 2.9 2.4 0.5
v 2.7 2.4 0.1
v 2.8 2.4 0.1
v 2.7 2.4 0
v 2.8 2.4 0
v 2.7 2.6 0.9
v 2.8 2.6 0.9
v 2.6 2.6 0.8
v 2.7 2.6 0.8
v 2.6 2.6 0.4
v 2.7 2.6 0.4
v 2.8 2.6 0.4
v 2.9 2.6 0.4
v 2.8 2.6 0.3
v 2.9 2.6 0.3
v 2.6 2.6 -0.3
v 2.8 2.6 -0.3
v 2.7 2.6 -0.4
v 2.8 2.6 -0.4
v 2.7 2.6 -0.5
v 2.8 2.6 -0.5
v 2.6 2.6 -0.7
v 2.7 2.6 -0.7
v 2.7 2.6 -0.8
v 2.8 2.6 -0.8
v 2.6 2.7 0.4
v 2.7 2.7 0.4
v 2.8 2.7 0.4
v 2.6 2.7 0.3
v 2.7 2.7 0.3
v 2.8 2.7 0.3
v 2.6 2.7 0.2
v 2.8 2.7 0.2
v 2.6 2.7 0.1
v 2.8 2.7 0.1
v 2.7 2.7 0
v 2.8 2.7 0
v 2.7 2.7 -0.1
v 2.8 2.7 -0.1
v 2.9 2.7 -0.1
v 2.7 2.7 -0.2
v 2.8 2.7 -0.2
v 2.9 2.7 -0.2
v 2.7 2.7 -0.3
v 2.8 2.7 -0.3
v 2.6 2.8 0.3
v 2.8 2.8 0.3
v 2.6 2.8 0.2
v 2.8 2.8 0.2
v 2.6 2.8 -0.1
v 2.8 2.8 -0.1
v 2.6 2.8 -0.2
v 2.7 2.8 -0.2
v 2.8 2.8 -0.2
v 2.6 2.8 -0.3
v 2.7 2.8 -0.3

# faces
f 3/1/1 2/1/1 1/1/1
f 4/1/1 2/1/1 3/1/1
f 12/1/1 6/1/1 5/1/1
f 13/2/1 7/2/1 6/2/1
f 13/1/1 6/1/1 12/1/1
f 16/2/1 11/2/1 10/2/1
f 17/2/1 11/2/1 16/2/1
f 18/2/1 7/2/1 13/2/1
f 20/1/1 15/1/1 14/1/1
f 21/2/1 16/2/1 15/2/1
f 21/1/1 15/1/1 20/1/1
f 22/2/1 19/2/1 18/2/1
f 22/2/1 18/2/1 13/2/1
f 23/2/1 19/2/1 22/2/1
f 24/2/1 16/2/1 21/2/1
f 26/1/1 23/1/1 22/1/1
f 27/2/1 19/2/1 23/2/1
f 27/1/1 23/1/1 26/1/1
f 28/2/1 9/2/1 8/2/1
f 29/2/1 9/2/1 28/2/1
f 30/2/1 25/2/1 24/2/1
f 30/2/1 24/2/1 21/2/1
f 31/2/1 25/2/1 30/2/1
f 33/2/1 19/2/1 27/2/1
f 35/2/1 33/2/1 32/2/1
f 36/2/1 19/2/1 33/2/1
f 36/2/1 33/2/1 35/2/1
f 41/2/1 30/2/1 21/2/1
f 42/1/1 31/1/1 30/1/1
f 42/2/1 30/2/1 41/2/1
f 43/1/1 31/1/1 42/1/1
f 45/2/1 35/2/1 34/2/1
f 45/2/1 36/2/1 35/2/1
f 45/2/1 37/2/1 36/2/1
f 46/2/1 37/2/1 45/2/1
f 47/2/1 37/2/1 46/2/1
f 48/2/1 39/2/1 38/2/1
f 50/2/1 43/2/1 42/2/1
f 50/2/1 42/2/1 41/2/1
f 50/2/1 41/2/1 40/2/1
f 50/2/1 44/2/1 43/2/1
f 51/2/1 44/2/1 50/2/1
f 52/2/1 44/2/1 51/2/1
f 53/1/1 47/1/1 46/1/1
f 54/2/1 48/2/1 47/2/1
f 54/1/1 47/1/1 53/1/1
f 55/2/1 39/2/1 48/2/1
f 55/2/1 48/2/1 54/2/1
f 56/2/1 39/2/1 55/2/1
f 57/2/1 51/2/1 50/2/1
f 57/2/1 50/2/1 49/2/1
f 58/2/1 51/2/1 57/2/1
f 59/2/1 55/2/1 54/2/1
f 60/2/1 55/2/1 59/2/1
f 61/2/1 57/2/1 49/2/1
f 62/1/1 58/1/1 57/1/1
f 62/2/1 57/2/1 61/2/1
f 63/1/1 58/1/1 62/1/1
f 68/1/1 67/1/1 66/1/1
f 69/1/1 67/1/1 68/1/1
f 72/2/1 65/2/1 64/2/1
f 73/2/1 65/2/1 72/2/1
f 77/1/1 76/1/1 75/1/1
f 78/1/1 76/1/1 77/1/1
f 79/2/1 71/2/1 70/2/1
f 80/2/1 71/2/1 79/2/1
f 85/2/1 82/2/1 81/2/1
f 86/2/1 82/2/1 85/2/1
f 87/1/1 84/1/1 83/1/1
f 88/1/1 84/1/1 87/1/1
f 93/1/1 74/1/1 73/1/1
f 94/1/1 74/1/1 93/1/1
f 95/1/1 90/1/1 89/1/1
f 98/2/1 92/2/1 91/2/1
f 99/2/1 92/2/1 98/2/1
f 101/1/1 95/1/1 89/1/1
f 102/1/1 95/1/1 101/1/1
f 103/2/1 97/2/1 96/2/1
f 104/2/1 97/2/1 103/2/1
f 105/1/1 101/1/1 100/1/1
f 106/1/1 101/1/1 105/1/1
f 107/1/2 108/1/2 112/1/2
f 108/2/2 109/2/2 113/2/2
f 112/1/2 108/1/2 113/1/2
f 113/2/2 109/2/2 114/2/2
f 110/2/2 111/2/2 116/2/2
f 116/2/2 111/2/2 117/2/2
f 115/1/2 116/1/2 118/1/2
f 118/1/2 116/1/2 119/1/2
f 120/1/2 121/1/2 122/1/2
f 122/1/2 121/1/2 123/1/2
f 122/2/2 123/2/2 124/2/2
f 124/2/2 123/2/2 125/2/2
f 126/1/2 127/1/2 128/1/2
f 128/1/2 127/1/2 129/1/2
f 130/2/2 131/2/2 138/2/2
f 132/2/2 133/2/2 139/2/2
f 133/1/2 134/1/2 139/1/2
f 139/1/2 134/1/2 140/1/2
f 135/2/2 136/2/2 142/2/2
f 137/2/2 138/2/2 143/2/2
f 138/2/2 131/2/2 143/2/2
f 141/1/2 142/1/2 146/1/2
f 142/2/2 136/2/2 147/2/2
f 146/1/2 142/1/2 147/1/2
f 137/2/2 143/2/2 148/2/2
f 143/1/2 144/1/2 149/1/2
f 148/2/2 143/2/2 149/2/2
f 145/1/2 146/1/2 150/1/2
f 146/2/2 147/2/2 151/2/2
f 150/1/2 146/1/2 151/1/2
f 147/2/2 136/2/2 152/2/2
f 151/2/2 147/2/2 152/2/2
f 137/2/2 148/2/2 153/2/2
f 153/2/2 148/2/2 154/2/2
f 149/1/2 144/1/2 155/1/2
f 132/2/2 139/2/2 156/2/2
f 156/2/2 139/2/2 157/2/2
f 152/2/2 136/2/2 159/2/2
f 159/2/2 136/2/2 160/2/2
f 154/2/2 155/2/2 162/2/2
f 156/1/2 157/1/2 163/1/2
f 163/1/2 157/1/2 164/1/2
f 161/2/2 162/2/2 168/2/2
f 155/1/2 144/1/2 169/1/2
f 162/2/2 155/2/2 169/2/2
f 168/2/2 162/2/2 169/2/2
f 169/1/2 144/1/2 170/1/2
f 165/1/2 166/1/2 173/1/2
f 158/2/2 159/2/2 174/2/2
f 167/2/2 168/2/2 177/2/2
f 168/2/2 169/2/2 177/2/2
f 177/2/2 169/2/2 178/2/2
f 171/2/2 172/2/2 180/2/2
f 165/1/2 173/1/2 182/1/2
f 173/2/2 174/2/2 183/2/2
f 182/1/2 173/1/2 183/1/2
f 174/2/2 159/2/2 184/2/2
f 183/2/2 174/2/2 184/2/2
f 184/2/2 159/2/2 185/2/2
f 175/2/2 176/2/2 186/2/2
f 186/2/2 176/2/2 187/2/2
f 178/2/2 179/2/2 188/2/2
f 179/2/2 180/2/2 188/2/2
f 188/2/2 180/2/2 189/2/2
f 180/2/2 172/2/2 190/2/2
f 189/2/2 180/2/2 190/2/2
f 190/2/2 172/2/2 191/2/2
f 181/1/2 182/1/2 192/1/2
f 192/1/2 182/1/2 193/1/2
f 183/2/2 184/2/2 194/2/2
f 194/2/2 184/2/2 195/2/2
f 189/2/2 190/2/2 196/2/2
f 196/2/2 190/2/2 197/2/2
f 193/2/2 194/2/2 198/2/2
f 198/2/2 194/2/2 199/2/2
f 200/1/2 201/1/2 205/1/2
f 205/1/2 201/1/2 206/1/2
f 202/1/2 203/1/2 207/1/2
f 207/1/2 203/1/2 208/1/2
f 204/1/2 205/1/2 209/1/2
f 209/1/2 205/1/2 210/1/2
f 211/1/2 212/1/2 213/1/2
f 213/1/2 212/1/2 214/1/2
f 215/1/2 216/1/2 217/1/2
f 217/1/2 216/1/2 218/1/2
f 221/2/3 220/2/3 219/2/3
f 222/2/3 220/2/3 221/2/3
f 225/2/3 224/2/3 223/2/3
f 226/2/3 224/2/3 225/2/3
f 229/1/3 228/1/3 227/1/3
f 230/1/3 228/1/3 229/1/3
f 236/2/3 232/2/3 231/2/3
f 237/1/3 233/1/3 232/1/3
f 237/2/3 232/2/3 236/2/3
f 238/1/3 233/1/3 237/1/3
f 239/2/3 235/2/3 234/2/3
f 240/2/3 238/2/3 237/2/3
f 240/2/3 239/2/3 238/2/3
f 240/2/3 237/2/3 236/2/3
f 241/2/3 239/2/3 240/2/3
f 242/2/3 235/2/3 239/2/3
f 242/2/3 239/2/3 241/2/3
f 243/2/3 235/2/3 242/2/3
f 244/1/3 242/1/3 241/1/3
f 245/1/3 242/1/3 244/1/3
f 250/2/3 247/2/3 246/2/3
f 251/2/3 247/2/3 250/2/3
f 252/2/3 249/2/3 248/2/3
f 253/2/3 249/2/3 252/2/3
f 256/1/3 255/1/3 254/1/3
f 257/1/3 255/1/3 256/1/3
f 260/1/3 259/1/3 258/1/3
f 261/1/3 259/1/3 260/1/3
f 263/2/3 261/2/3 260/2/3
f 264/2/3 261/2/3 263/2/3
f 265/1/3 263/1/3 262/1/3
f 266/1/3 263/1/3 265/1/3
f 269/2/3 268/2/3 267/2/3
f 270/2/3 268/2/3 269/2/3
f 271/2/3 268/2/3 270/2/3
f 274/2/3 273/2/3 272/2/3
f 275/2/3 273/2/3 274/2/3
f 278/2/3 277/2/3 276/2/3
f 280/2/3 278/2/3 276/2/3
f 281/1/3 279/1/3 278/1/3
f 281/2/3 278/2/3 280/2/3
f 282/1/3 279/1/3 281/1/3
f 285/1/3 284/1/3 283/1/3
f 286/1/3 284/1/3 285/1/3
f 290/2/3 288/2/3 287/2/3
f 291/2/3 288/2/3 290/2/3
f 292/1/3 290/1/3 289/1/3
f 293/1/3 290/1/3 292/1/3
f 294/2/3 288/2/3 291/2/3
f 295/2/3 288/2/3 294/2/3
f 296/1/3 294/1/3 293/1/3
f 297/1/3 294/1/3 296/1/3
f 302/1/3 299/1/3 298/1/3
f 303/1/3 299/1/3 302/1/3
f 305/2/3 301/2/3 300/2/3
f 306/2/3 301/2/3 305/2/3
f 307/1/3 304/1/3 303/1/3
f 308/1/3 304/1/3 307/1/3
f 311/1/3 310/1/3 309/1/3
f 312/1/3 310/1/3 311/1/3
f 315/2/3 312/2/3 311/2/3
f 316/2/3 312/2/3 315/2/3
f 317/2/3 314/2/3 313/2/3
f 318/2/3 314/2/3 317/2/3
f 319/1/3 317/1/3 316/1/3
f 320/1/3 317/1/3 319/1/3
f 321/2/3 314/2/3 318/2/3
f 322/2/3 314/2/3 321/2/3
f 323/2/3 314/2/3 322/2/3
f 324/1/3 322/1/3 321/1/3
f 325/1/3 322/1/3 324/1/3
f 328/2/3 327/2/3 326/2/3
f 329/2/3 327/2/3 328/2/3
f 332/2/3 331/2/3 330/2/3
f 333/2/3 331/2/3 332/2/3
f 334/2/4 335/2/4 336/2/4
f 336/2/4 335/2/4 337/2/4
f 338/1/4 339/1/4 340/1/4
f 340/1/4 339/1/4 341/1/4
f 342/2/4 343/2/4 345/2/4
f 345/2/4 343/2/4 346/2/4
f 344/2/4 345/2/4 347/2/4
f 347/2/4 345/2/4 348/2/4
f 349/1/4 350/1/4 351/1/4
f 351/1/4 350/1/4 352/1/4
f 353/2/4 354/2/4 356/2/4
f 355/1/4 356/1/4 357/1/4
f 356/2/4 354/2/4 358/2/4
f 357/1/4 356/1/4 358/1/4
f 358/2/4 354/2/4 359/2/4
f 358/1/4 359/1/4 360/1/4
f 360/1/4 359/1/4 361/1/4
f 362/2/4 363/2/4 364/2/4
f 364/2/4 363/2/4 365/2/4
f 366/2/4 367/2/4 368/2/4
f 368/2/4 367/2/4 369/2/4
f 370/2/4 371/2/4 372/2/4
f 372/2/4 371/2/4 373/2/4
f 373/2/4 371/2/4 374/2/4
f 373/2/4 374/2/4 376/2/4
f 374/1/4 375/1/4 377/1/4
f 376/2/4 374/2/4 377/2/4
f 377/1/4 375/1/4 378/1/4
f 379/1/4 380/1/4 381/1/4
f 381/1/4 380/1/4 382/1/4
f 383/1/4 384/1/4 387/1/4
f 387/1/4 384/1/4 388/1/4
f 385/2/4 386/2/4 390/2/4
f 390/2/4 386/2/4 391/2/4
f 389/1/4 390/1/4 392/1/4
f 392/1/4 390/1/4 393/1/4
f 394/2/4 395/2/4 397/2/4
f 395/1/4 396/1/4 397/1/4
f 397/1/4 396/1/4 398/1/4
f 394/2/4 397/2/4 399/2/4
f 399/2/4 397/2/4 400/2/4
f 401/1/4 402/1/4 403/1/4
f 403/1/4 402/1/4 404/1/4
f 404/2/4 405/2/4 406/2/4
f 406/2/4 405/2/4 407/2/4
f 409/2/4 410/2/4 412/2/4
f 408/2/4 409/2/4 412/2/4
f 412/2/4 410/2/4 413/2/4
f 411/1/4 412/1/4 414/1/4
f 414/1/4 412/1/4 415/1/4
f 416/2/4 417/2/4 421/2/4
f 418/2/4 419/2/4 422/2/4
f 419/1/4 420/1/4 423/1/4
f 422/2/4 419/2/4 423/2/4
f 423/1/4 420/1/4 424/1/4
f 421/2/4 422/2/4 425/2/4
f 416/2/4 421/2/4 425/2/4
f 422/2/4 423/2/4 425/2/4
f 425/2/4 423/2/4 426/2/4
f 427/2/4 428/2/4 429/2/4
f 429/2/4 428/2/4 430/2/4
f 431/2/4 432/2/4 433/2/4
f 433/2/4 432/2/4 434/2/4
f 437/1/5 436/1/5 435/1/5
f 438/1/5 436/1/5 437/1/5
f 439/2/5 438/2/5 437/2/5
f 440/2/5 438/2/5 439/2/5
f 442/2/5 441/2/5 440/2/5
f 443/2/5 441/2/5 442/2/5
f 446/2/5 445/2/5 444/2/5
f 447/2/5 445/2/5 446/2/5
f 448/2/5 445/2/5 447/2/5
f 449/1/5 448/1/5 447/1/5
f 450/1/5 448/1/5 449/1/5
f 454/1/5 452/1/5 451/1/5
f 455/2/5 453/2/5 452/2/5
f 455/1/5 452/1/5 454/1/5
f 456/2/5 453/2/5 455/2/5
f 458/2/5 457/2/5 456/2/5
f 458/2/5 456/2/5 455/2/5
f 459/2/5 457/2/5 458/2/5
f 462/2/5 461/2/5 460/2/5
f 463/2/5 461/2/5 462/2/5
f 466/1/5 465/1/5 464/1/5
f 467/1/5 465/1/5 466/1/5
f 469/1/5 468/1/5 467/1/5
f 470/1/5 468/1/5 469/1/5
f 473/2/5 472/2/5 471/2/5
f 474/2/5 472/2/5 473/2/5
f 476/1/5 475/1/5 474/1/5
f 477/1/5 475/1/5 476/1/5
f 480/1/5 479/1/5 478/1/5
f 481/1/5 479/1/5 480/1/5
f 484/1/5 483/1/5 482/1/5
f 485/1/5 483/1/5 484/1/5
f 490/1/5 487/1/5 486/1/5
f 491/1/5 487/1/5 490/1/5
f 492/2/5 489/2/5 488/2/5
f 493/2/5 489/2/5 492/2/5
f 496/1/5 495/1/5 494/1/5
f 497/1/5 495/1/5 496/1/5
f 500/2/5 499/2/5 498/2/5
f 501/2/5 499/2/5 500/2/5
f 504/1/5 503/1/5 502/1/5
f 505/1/5 503/1/5 504/1/5
f 509/2/5 507/2/5 506/2/5
f 510/2/5 509/2/5 508/2/5
f 511/2/5 507/2/5 509/2/5
f 511/2/5 509/2/5 510/2/5
f 516/2/5 513/2/5 512/2/5
f 517/2/5 513/2/5 516/2/5
f 518/1/5 515/1/5 514/1/5
f 519/1/5 515/1/5 518/1/5
f 522/2/5 521/2/5 520/2/5
f 523/2/5 521/2/5 522/2/5
f 527/2/5 525/2/5 524/2/5
f 527/2/5 526/2/5 525/2/5
f 528/2/5 526/2/5 527/2/5
f 532/2/5 530/2/5 529/2/5
f 532/2/5 531/2/5 530/2/5
f 533/2/5 531/2/5 532/2/5
f 534/2/5 531/2/5 533/2/5
f 535/2/5 531/2/5 534/2/5
f 538/2/5 537/2/5 536/2/5
f 539/2/5 537/2/5 538/2/5
f 543/1/5 541/1/5 540/1/5
f 544/1/5 541/1/5 543/1/5
f 546/2/5 543/2/5 542/2/5
f 547/2/5 543/2/5 546/2/5
f 548/1/5 545/1/5 544/1/5
f 549/1/5 545/1/5 548/1/5
f 550/1/6 551/1/6 552/1/6
f 552/1/6 551/1/6 553/1/6
f 554/1/6 555/1/6 556/1/6
f 556/1/6 555/1/6 557/1/6
f 558/1/6 559/1/6 560/1/6
f 560/1/6 559/1/6 561/1/6
f 561/2/6 562/2/6 563/2/6
f 563/2/6 562/2/6 564/2/6
f 565/1/6 566/1/6 567/1/6
f 567/1/6 566/1/6 568/1/6
f 569/1/6 570/1/6 571/1/6
f 571/1/6 570/1/6 572/1/6
f 573/1/6 574/1/6 575/1/6
f 575/1/6 574/1/6 576/1/6
f 577/1/6 578/1/6 579/1/6
f 579/1/6 578/1/6 580/1/6
f 581/2/6 582/2/6 583/2/6
f 583/2/6 582/2/6 584/2/6
f 585/1/6 586/1/6 588/1/6
f 588/1/6 586/1/6 589/1/6
f 587/2/6 588/2/6 590/2/6
f 590/2/6 588/2/6 591/2/6
f 592/1/6 593/1/6 594/1/6
f 594/1/6 593/1/6 595/1/6
f 596/1/6 597/1/6 598/1/6
f 598/1/6 597/1/6 599/1/6
f 600/2/6 601/2/6 603/2/6
f 602/2/6 603/2/6 604/2/6
f 603/2/6 601/2/6 605/2/6
f 604/2/6 603/2/6 605/2/6
f 605/2/6 601/2/6 606/2/6
f 606/1/6 607/1/6 608/1/6
f 608/1/6 607/1/6 609/1/6
f 610/2/6 611/2/6 612/2/6
f 612/2/6 611/2/6 613/2/6
f 610/2/6 612/2/6 614/2/6
f 610/2/6 614/2/6 616/2/6
f 614/2/6 615/2/6 616/2/6
f 616/2/6 615/2/6 617/2/6
f 617/2/6 615/2/6 618/2/6
f 618/2/6 615/2/6 619/2/6
f 620/1/6 621/1/6 623/1/6
f 621/2/6 622/2/6 624/2/6
f 623/1/6 621/1/6 624/1/6
f 624/2/6 622/2/6 625/2/6
f 626/2/6 627/2/6 628/2/6
f 628/2/6 627/2/6 629/2/6
f 630/1/6 631/1/6 632/1/6
f 632/1/6 631/1/6 633/1/6
f 633/1/6 634/1/6 636/1/6
f 636/1/6 634/1/6 637/1/6
f 635/2/6 636/2/6 638/2/6
f 638/2/6 636/2/6 639/2/6
f 640/2/6 641/2/6 642/2/6
f 642/2/6 641/2/6 643/2/6
f 644/2/6 645/2/6 646/2/6
f 646/2/6 645/2/6 647/2/6
f 647/2/6 645/2/6 648/2/6
f 646/1/6 647/1/6 649/1/6
f 649/1/6 647/1/6 650/1/6
