# MagicaVoxel @ Ephtracy

# group
o 

# material
mtllib small altar-2.mtl
usemtl palette

# normals
vn -1 0 0
vn 1 0 0
vn 0 0 1
vn 0 0 -1
vn 0 -1 0
vn 0 1 0

# texcoords
vt 0.943359 0.5
vt 0.974609 0.5
vt 0.978516 0.5

# verts
v 4.4 1.9 2.2
v 4.4 1.9 2
v 4.4 2 2.2
v 4.4 2 2
v 4.4 2.1 2.2
v 4.4 2.1 2
v 4.6 1.9 2.4
v 4.6 1.9 2.2
v 4.6 1.9 2
v 4.6 1.9 1.8
v 4.6 2 2.4
v 4.6 2 2.2
v 4.6 2 2
v 4.6 2 1.8
v 4.6 2.1 2.4
v 4.6 2.1 2.2
v 4.6 2.1 2
v 4.6 2.1 1.8
v 4.6 2.3 2.2
v 4.6 2.3 2
v 4.6 2.5 2.2
v 4.6 2.5 2
v 4.6 2.7 2.2
v 4.6 2.7 2
v 4.8 1.9 2.4
v 4.8 1.9 2.2
v 4.8 1.9 2
v 4.8 1.9 1.8
v 4.8 2 2.4
v 4.8 2 2.2
v 4.8 2 2
v 4.8 2 1.8
v 4.8 2.1 2.4
v 4.8 2.1 2.2
v 4.8 2.1 2
v 4.8 2.1 1.8
v 4.8 2.3 2.2
v 4.8 2.3 2
v 4.8 2.5 2.2
v 4.8 2.5 2
v 4.8 2.7 2.2
v 4.8 2.7 2
v 5 1.9 2.2
v 5 1.9 2
v 5 2 2.2
v 5 2 2
v 5 2.1 2.2
v 5 2.1 2
v 4.6 1.9 2.4
v 4.6 2 2.4
v 4.6 2.1 2.4
v 4.8 1.9 2.4
v 4.8 2 2.4
v 4.8 2.1 2.4
v 4.4 1.9 2.2
v 4.4 2 2.2
v 4.4 2.1 2.2
v 4.6 1.9 2.2
v 4.6 2 2.2
v 4.6 2.1 2.2
v 4.6 2.3 2.2
v 4.6 2.5 2.2
v 4.6 2.7 2.2
v 4.8 1.9 2.2
v 4.8 2 2.2
v 4.8 2.1 2.2
v 4.8 2.3 2.2
v 4.8 2.5 2.2
v 4.8 2.7 2.2
v 5 1.9 2.2
v 5 2 2.2
v 5 2.1 2.2
v 4.4 1.9 2
v 4.4 2 2
v 4.4 2.1 2
v 4.6 1.9 2
v 4.6 2 2
v 4.6 2.1 2
v 4.6 2.3 2
v 4.6 2.5 2
v 4.6 2.7 2
v 4.8 1.9 2
v 4.8 2 2
v 4.8 2.1 2
v 4.8 2.3 2
v 4.8 2.5 2
v 4.8 2.7 2
v 5 1.9 2
v 5 2 2
v 5 2.1 2
v 4.6 1.9 1.8
v 4.6 2 1.8
v 4.6 2.1 1.8
v 4.8 1.9 1.8
v 4.8 2 1.8
v 4.8 2.1 1.8
v 4.6 1.9 2.4
v 4.8 1.9 2.4
v 4.4 1.9 2.2
v 4.6 1.9 2.2
v 4.8 1.9 2.2
v 5 1.9 2.2
v 4.4 1.9 2
v 4.6 1.9 2
v 4.8 1.9 2
v 5 1.9 2
v 4.6 1.9 1.8
v 4.8 1.9 1.8
v 4.6 2.5 2.2
v 4.8 2.5 2.2
v 4.6 2.5 2
v 4.8 2.5 2
v 4.6 2.1 2.4
v 4.8 2.1 2.4
v 4.4 2.1 2.2
v 4.6 2.1 2.2
v 4.8 2.1 2.2
v 5 2.1 2.2
v 4.4 2.1 2
v 4.6 2.1 2
v 4.8 2.1 2
v 5 2.1 2
v 4.6 2.1 1.8
v 4.8 2.1 1.8
v 4.6 2.3 2.2
v 4.8 2.3 2.2
v 4.6 2.3 2
v 4.8 2.3 2
v 4.6 2.7 2.2
v 4.8 2.7 2.2
v 4.6 2.7 2
v 4.8 2.7 2

# faces
f 3/3/1 2/3/1 1/3/1
f 4/3/1 2/3/1 3/3/1
f 5/2/1 4/2/1 3/2/1
f 6/2/1 4/2/1 5/2/1
f 11/3/1 8/3/1 7/3/1
f 12/3/1 8/3/1 11/3/1
f 13/3/1 10/3/1 9/3/1
f 14/3/1 10/3/1 13/3/1
f 15/2/1 12/2/1 11/2/1
f 16/2/1 12/2/1 15/2/1
f 17/2/1 14/2/1 13/2/1
f 18/2/1 14/2/1 17/2/1
f 19/2/1 17/2/1 16/2/1
f 20/2/1 17/2/1 19/2/1
f 23/1/1 22/1/1 21/1/1
f 24/1/1 22/1/1 23/1/1
f 25/3/2 26/3/2 29/3/2
f 29/3/2 26/3/2 30/3/2
f 27/3/2 28/3/2 31/3/2
f 31/3/2 28/3/2 32/3/2
f 29/2/2 30/2/2 33/2/2
f 33/2/2 30/2/2 34/2/2
f 31/2/2 32/2/2 35/2/2
f 35/2/2 32/2/2 36/2/2
f 34/2/2 35/2/2 37/2/2
f 37/2/2 35/2/2 38/2/2
f 39/1/2 40/1/2 41/1/2
f 41/1/2 40/1/2 42/1/2
f 43/3/2 44/3/2 45/3/2
f 45/3/2 44/3/2 46/3/2
f 45/2/2 46/2/2 47/2/2
f 47/2/2 46/2/2 48/2/2
f 52/3/3 50/3/3 49/3/3
f 53/2/3 51/2/3 50/2/3
f 53/3/3 50/3/3 52/3/3
f 54/2/3 51/2/3 53/2/3
f 58/3/3 56/3/3 55/3/3
f 59/2/3 57/2/3 56/2/3
f 59/3/3 56/3/3 58/3/3
f 60/2/3 57/2/3 59/2/3
f 66/2/3 61/2/3 60/2/3
f 67/2/3 61/2/3 66/2/3
f 68/1/3 63/1/3 62/1/3
f 69/1/3 63/1/3 68/1/3
f 70/3/3 65/3/3 64/3/3
f 71/2/3 66/2/3 65/2/3
f 71/3/3 65/3/3 70/3/3
f 72/2/3 66/2/3 71/2/3
f 73/3/4 74/3/4 76/3/4
f 74/2/4 75/2/4 77/2/4
f 76/3/4 74/3/4 77/3/4
f 77/2/4 75/2/4 78/2/4
f 78/2/4 79/2/4 84/2/4
f 84/2/4 79/2/4 85/2/4
f 80/1/4 81/1/4 86/1/4
f 86/1/4 81/1/4 87/1/4
f 82/3/4 83/3/4 88/3/4
f 83/2/4 84/2/4 89/2/4
f 88/3/4 83/3/4 89/3/4
f 89/2/4 84/2/4 90/2/4
f 91/3/4 92/3/4 94/3/4
f 92/2/4 93/2/4 95/2/4
f 94/3/4 92/3/4 95/3/4
f 95/2/4 93/2/4 96/2/4
f 100/3/5 98/3/5 97/3/5
f 101/3/5 98/3/5 100/3/5
f 103/3/5 100/3/5 99/3/5
f 104/2/5 101/2/5 100/2/5
f 104/3/5 100/3/5 103/3/5
f 105/3/5 102/3/5 101/3/5
f 105/2/5 101/2/5 104/2/5
f 106/3/5 102/3/5 105/3/5
f 107/3/5 105/3/5 104/3/5
f 108/3/5 105/3/5 107/3/5
f 111/1/5 110/1/5 109/1/5
f 112/1/5 110/1/5 111/1/5
f 113/2/6 114/2/6 116/2/6
f 116/2/6 114/2/6 117/2/6
f 115/2/6 116/2/6 119/2/6
f 119/2/6 116/2/6 120/2/6
f 117/2/6 118/2/6 121/2/6
f 121/2/6 118/2/6 122/2/6
f 120/2/6 121/2/6 123/2/6
f 123/2/6 121/2/6 124/2/6
f 125/2/6 126/2/6 127/2/6
f 127/2/6 126/2/6 128/2/6
f 129/1/6 130/1/6 131/1/6
f 131/1/6 130/1/6 132/1/6
