# MagicaVoxel @ Ephtracy

# group
o 

# material
mtllib bridge.mtl
usemtl palette

# normals
vn -1 0 0
vn 1 0 0
vn 0 0 1
vn 0 0 -1
vn 0 -1 0
vn 0 1 0

# texcoords
vt 0.943359 0.5
vt 0.970703 0.5
vt 0.974609 0.5
vt 0.978516 0.5
vt 0.982422 0.5

# verts
v -1.3 1.4 7.6
v -1.3 1.4 5.9
v -1.3 1.6 7.6
v -1.3 1.6 6.9
v -1.3 1.7 6.9
v -1.3 1.7 6.5
v -1.3 1.8 7.6
v -1.3 1.8 7.2
v -1.3 1.9 7.2
v -1.3 1.9 6.5
v -1.3 2 6.5
v -1.3 2 5.9
v -1.3 2.3 6.5
v -1.3 2.3 5.9
v -1.3 2.4 6.5
v -1.3 2.4 5.9
v -1.2 2 6.4
v -1.2 2 6
v -1.2 2.1 6.3
v -1.2 2.1 6.1
v -1.2 2.2 6.3
v -1.2 2.2 6.1
v -1.2 2.3 6.4
v -1.2 2.3 6
v -1.2 2.4 6.4
v -1.2 2.4 6
v -1.2 2.5 6.4
v -1.2 2.5 6
v -1.1 2.1 6.3
v -1.1 2.1 6.1
v -1.1 2.2 6.3
v -1.1 2.2 6.1
v -0.9 1.6 7.6
v -0.9 1.6 7
v -0.9 1.7 7
v -0.9 1.7 6.8
v -0.9 1.8 7.6
v -0.9 1.8 7.2
v -0.9 1.8 6.8
v -0.9 1.8 6.5
v -0.9 1.9 7.2
v -0.9 1.9 6.5
v -0.9 2.1 6.4
v -0.9 2.1 6.3
v -0.9 2.1 6.1
v -0.9 2.1 6
v -0.9 2.2 6.4
v -0.9 2.2 6.3
v -0.9 2.2 6.1
v -0.9 2.2 6
v 0.5 1.5 7.6
v 0.5 1.5 7.1
v 0.5 1.5 6.8
v 0.5 1.5 6.7
v 0.5 1.6 7.6
v 0.5 1.6 7.1
v 0.5 1.6 6.9
v 0.5 1.6 6.8
v 0.5 1.6 6.7
v 0.5 1.7 6.9
v 0.5 1.7 6.7
v 0.5 1.8 7.6
v 0.5 1.8 7.2
v 0.5 1.8 6.7
v 0.5 1.8 6.5
v 0.5 1.9 7.2
v 0.5 1.9 6.5
v 0.5 1.9 5.9
v 0.5 2 6.5
v 0.5 2 5.9
v 0.5 2.3 6.5
v 0.5 2.3 5.9
v 0.5 2.4 6.5
v 0.5 2.4 5.9
v 0.6 2 6.4
v 0.6 2 6
v 0.6 2.1 6.3
v 0.6 2.1 6.1
v 0.6 2.2 6.3
v 0.6 2.2 6.1
v 0.6 2.3 6.4
v 0.6 2.3 6
v 0.6 2.4 6.4
v 0.6 2.4 6
v 0.6 2.5 6.4
v 0.6 2.5 6
v 0.7 2.1 6.3
v 0.7 2.1 6.1
v 0.7 2.2 6.3
v 0.7 2.2 6.1
v 0.9 1.6 7.6
v 0.9 1.6 7
v 0.9 1.7 7
v 0.9 1.7 6.8
v 0.9 1.8 7.6
v 0.9 1.8 7.2
v 0.9 1.8 6.8
v 0.9 1.8 6.5
v 0.9 1.9 7.2
v 0.9 1.9 6.5
v 0.9 2.1 6.4
v 0.9 2.1 6.3
v 0.9 2.1 6.1
v 0.9 2.1 6
v 0.9 2.2 6.4
v 0.9 2.2 6.3
v 0.9 2.2 6.1
v 0.9 2.2 6
v -1.1 1.6 7.6
v -1.1 1.6 7
v -1.1 1.7 7
v -1.1 1.7 6.8
v -1.1 1.8 7.6
v -1.1 1.8 7.2
v -1.1 1.8 6.8
v -1.1 1.8 6.5
v -1.1 1.9 7.2
v -1.1 1.9 6.5
v -1.1 2.1 6.4
v -1.1 2.1 6.3
v -1.1 2.1 6.1
v -1.1 2.1 6
v -1.1 2.2 6.4
v -1.1 2.2 6.3
v -1.1 2.2 6.1
v -1.1 2.2 6
v -0.9 2.1 6.3
v -0.9 2.1 6.1
v -0.9 2.2 6.3
v -0.9 2.2 6.1
v -0.8 2 6.4
v -0.8 2 6
v -0.8 2.1 6.3
v -0.8 2.1 6.1
v -0.8 2.2 6.3
v -0.8 2.2 6.1
v -0.8 2.3 6.4
v -0.8 2.3 6
v -0.8 2.4 6.4
v -0.8 2.4 6
v -0.8 2.5 6.4
v -0.8 2.5 6
v -0.7 1.5 7.6
v -0.7 1.5 7.1
v -0.7 1.5 6.8
v -0.7 1.5 6.7
v -0.7 1.6 7.6
v -0.7 1.6 7.1
v -0.7 1.6 6.9
v -0.7 1.6 6.8
v -0.7 1.6 6.7
v -0.7 1.7 6.9
v -0.7 1.7 6.7
v -0.7 1.8 7.6
v -0.7 1.8 7.2
v -0.7 1.8 6.7
v -0.7 1.8 6.5
v -0.7 1.9 7.2
v -0.7 1.9 6.5
v -0.7 1.9 5.9
v -0.7 2 6.5
v -0.7 2 5.9
v -0.7 2.3 6.5
v -0.7 2.3 5.9
v -0.7 2.4 6.5
v -0.7 2.4 5.9
v 0.7 1.6 7.6
v 0.7 1.6 7
v 0.7 1.7 7
v 0.7 1.7 6.8
v 0.7 1.8 7.6
v 0.7 1.8 7.2
v 0.7 1.8 6.8
v 0.7 1.8 6.5
v 0.7 1.9 7.2
v 0.7 1.9 6.5
v 0.7 2.1 6.4
v 0.7 2.1 6.3
v 0.7 2.1 6.1
v 0.7 2.1 6
v 0.7 2.2 6.4
v 0.7 2.2 6.3
v 0.7 2.2 6.1
v 0.7 2.2 6
v 0.9 2.1 6.3
v 0.9 2.1 6.1
v 0.9 2.2 6.3
v 0.9 2.2 6.1
v 1 2 6.4
v 1 2 6
v 1 2.1 6.3
v 1 2.1 6.1
v 1 2.2 6.3
v 1 2.2 6.1
v 1 2.3 6.4
v 1 2.3 6
v 1 2.4 6.4
v 1 2.4 6
v 1 2.5 6.4
v 1 2.5 6
v 1.1 1.4 7.6
v 1.1 1.4 5.9
v 1.1 1.6 7.6
v 1.1 1.6 6.9
v 1.1 1.7 6.9
v 1.1 1.7 6.5
v 1.1 1.8 7.6
v 1.1 1.8 7.2
v 1.1 1.9 7.2
v 1.1 1.9 6.5
v 1.1 2 6.5
v 1.1 2 5.9
v 1.1 2.3 6.5
v 1.1 2.3 5.9
v 1.1 2.4 6.5
v 1.1 2.4 5.9
v -1.3 1.4 7.6
v -1.3 1.6 7.6
v -1.3 1.8 7.6
v -1.1 1.6 7.6
v -1.1 1.8 7.6
v -0.9 1.6 7.6
v -0.9 1.8 7.6
v -0.7 1.4 7.6
v -0.7 1.5 7.6
v -0.7 1.6 7.6
v -0.7 1.8 7.6
v -0.5 1.4 7.6
v -0.5 1.5 7.6
v 0.3 1.4 7.6
v 0.3 1.5 7.6
v 0.5 1.4 7.6
v 0.5 1.5 7.6
v 0.5 1.6 7.6
v 0.5 1.8 7.6
v 0.7 1.6 7.6
v 0.7 1.8 7.6
v 0.9 1.6 7.6
v 0.9 1.8 7.6
v 1.1 1.4 7.6
v 1.1 1.6 7.6
v 1.1 1.8 7.6
v -1.3 1.8 7.2
v -1.3 1.9 7.2
v -1.1 1.8 7.2
v -1.1 1.9 7.2
v -0.9 1.8 7.2
v -0.9 1.9 7.2
v -0.7 1.8 7.2
v -0.7 1.9 7.2
v 0.5 1.8 7.2
v 0.5 1.9 7.2
v 0.7 1.8 7.2
v 0.7 1.9 7.2
v 0.9 1.8 7.2
v 0.9 1.9 7.2
v 1.1 1.8 7.2
v 1.1 1.9 7.2
v -0.7 1.5 7.1
v -0.7 1.6 7.1
v -0.5 1.5 7.1
v -0.5 1.6 7.1
v 0.3 1.5 7.1
v 0.3 1.6 7.1
v 0.5 1.5 7.1
v 0.5 1.6 7.1
v -1.1 1.6 7
v -1.1 1.7 7
v -0.9 1.6 7
v -0.9 1.7 7
v 0.7 1.6 7
v 0.7 1.7 7
v 0.9 1.6 7
v 0.9 1.7 7
v -0.7 1.6 6.9
v -0.7 1.7 6.9
v -0.5 1.6 6.9
v -0.5 1.7 6.9
v 0.3 1.6 6.9
v 0.3 1.7 6.9
v 0.5 1.6 6.9
v 0.5 1.7 6.9
v -1.1 1.7 6.8
v -1.1 1.8 6.8
v -0.9 1.7 6.8
v -0.9 1.8 6.8
v 0.7 1.7 6.8
v 0.7 1.8 6.8
v 0.9 1.7 6.8
v 0.9 1.8 6.8
v -0.7 1.5 6.7
v -0.7 1.6 6.7
v -0.7 1.7 6.7
v -0.7 1.8 6.7
v -0.5 1.6 6.7
v -0.5 1.7 6.7
v -0.5 1.8 6.7
v 0.3 1.6 6.7
v 0.3 1.7 6.7
v 0.3 1.8 6.7
v 0.5 1.5 6.7
v 0.5 1.6 6.7
v 0.5 1.7 6.7
v 0.5 1.8 6.7
v -1.3 1.9 6.5
v -1.3 2 6.5
v -1.3 2.3 6.5
v -1.3 2.4 6.5
v -1.1 1.8 6.5
v -1.1 1.9 6.5
v -0.9 1.8 6.5
v -0.9 1.9 6.5
v -0.7 1.8 6.5
v -0.7 1.9 6.5
v -0.7 2 6.5
v -0.7 2.3 6.5
v -0.7 2.4 6.5
v -0.5 1.8 6.5
v -0.5 1.9 6.5
v 0.3 1.8 6.5
v 0.3 1.9 6.5
v 0.5 1.8 6.5
v 0.5 1.9 6.5
v 0.5 2 6.5
v 0.5 2.3 6.5
v 0.5 2.4 6.5
v 0.7 1.8 6.5
v 0.7 1.9 6.5
v 0.9 1.8 6.5
v 0.9 1.9 6.5
v 1.1 1.9 6.5
v 1.1 2 6.5
v 1.1 2.3 6.5
v 1.1 2.4 6.5
v -1.2 2 6.4
v -1.2 2.3 6.4
v -1.2 2.4 6.4
v -1.2 2.5 6.4
v -1.1 2.1 6.4
v -1.1 2.2 6.4
v -0.9 2.1 6.4
v -0.9 2.2 6.4
v -0.8 2 6.4
v -0.8 2.3 6.4
v -0.8 2.4 6.4
v -0.8 2.5 6.4
v 0.6 2 6.4
v 0.6 2.3 6.4
v 0.6 2.4 6.4
v 0.6 2.5 6.4
v 0.7 2.1 6.4
v 0.7 2.2 6.4
v 0.9 2.1 6.4
v 0.9 2.2 6.4
v 1 2 6.4
v 1 2.3 6.4
v 1 2.4 6.4
v 1 2.5 6.4
v -1.1 2.1 6.3
v -1.1 2.2 6.3
v -0.9 2.1 6.3
v -0.9 2.2 6.3
v 0.7 2.1 6.3
v 0.7 2.2 6.3
v 0.9 2.1 6.3
v 0.9 2.2 6.3
v -1.2 2.1 6.1
v -1.2 2.2 6.1
v -1.1 2.1 6.1
v -1.1 2.2 6.1
v -0.9 2.1 6.1
v -0.9 2.2 6.1
v -0.8 2.1 6.1
v -0.8 2.2 6.1
v 0.6 2.1 6.1
v 0.6 2.2 6.1
v 0.7 2.1 6.1
v 0.7 2.2 6.1
v 0.9 2.1 6.1
v 0.9 2.2 6.1
v 1 2.1 6.1
v 1 2.2 6.1
v -0.7 1.5 6.8
v -0.7 1.6 6.8
v -0.5 1.5 6.8
v -0.5 1.6 6.8
v 0.3 1.5 6.8
v 0.3 1.6 6.8
v 0.5 1.5 6.8
v 0.5 1.6 6.8
v -1.2 2.1 6.3
v -1.2 2.2 6.3
v -1.1 2.1 6.3
v -1.1 2.2 6.3
v -0.9 2.1 6.3
v -0.9 2.2 6.3
v -0.8 2.1 6.3
v -0.8 2.2 6.3
v 0.6 2.1 6.3
v 0.6 2.2 6.3
v 0.7 2.1 6.3
v 0.7 2.2 6.3
v 0.9 2.1 6.3
v 0.9 2.2 6.3
v 1 2.1 6.3
v 1 2.2 6.3
v -1.1 2.1 6.1
v -1.1 2.2 6.1
v -0.9 2.1 6.1
v -0.9 2.2 6.1
v 0.7 2.1 6.1
v 0.7 2.2 6.1
v 0.9 2.1 6.1
v 0.9 2.2 6.1
v -1.2 2 6
v -1.2 2.3 6
v -1.2 2.4 6
v -1.2 2.5 6
v -1.1 2.1 6
v -1.1 2.2 6
v -0.9 2.1 6
v -0.9 2.2 6
v -0.8 2 6
v -0.8 2.3 6
v -0.8 2.4 6
v -0.8 2.5 6
v 0.6 2 6
v 0.6 2.3 6
v 0.6 2.4 6
v 0.6 2.5 6
v 0.7 2.1 6
v 0.7 2.2 6
v 0.9 2.1 6
v 0.9 2.2 6
v 1 2 6
v 1 2.3 6
v 1 2.4 6
v 1 2.5 6
v -1.3 1.4 5.9
v -1.3 2 5.9
v -1.3 2.3 5.9
v -1.3 2.4 5.9
v -0.7 1.8 5.9
v -0.7 1.9 5.9
v -0.7 2 5.9
v -0.7 2.3 5.9
v -0.7 2.4 5.9
v -0.5 1.8 5.9
v -0.5 1.9 5.9
v 0.3 1.8 5.9
v 0.3 1.9 5.9
v 0.5 1.8 5.9
v 0.5 1.9 5.9
v 0.5 2 5.9
v 0.5 2.3 5.9
v 0.5 2.4 5.9
v 1.1 1.4 5.9
v 1.1 2 5.9
v 1.1 2.3 5.9
v 1.1 2.4 5.9
v -1.3 1.4 7.6
v -0.7 1.4 7.6
v -0.5 1.4 7.6
v 0.3 1.4 7.6
v 0.5 1.4 7.6
v 1.1 1.4 7.6
v -0.5 1.4 6.8
v 0.3 1.4 6.8
v -0.7 1.4 6.4
v 0.5 1.4 6.4
v -1.3 1.4 5.9
v 1.1 1.4 5.9
v -0.7 1.6 6.8
v -0.5 1.6 6.8
v 0.3 1.6 6.8
v 0.5 1.6 6.8
v -0.7 1.6 6.7
v -0.5 1.6 6.7
v 0.3 1.6 6.7
v 0.5 1.6 6.7
v -1.1 2.2 6.4
v -0.9 2.2 6.4
v 0.7 2.2 6.4
v 0.9 2.2 6.4
v -1.2 2.2 6.3
v -1.1 2.2 6.3
v -0.9 2.2 6.3
v -0.8 2.2 6.3
v 0.6 2.2 6.3
v 0.7 2.2 6.3
v 0.9 2.2 6.3
v 1 2.2 6.3
v -1.2 2.2 6.1
v -1.1 2.2 6.1
v -0.9 2.2 6.1
v -0.8 2.2 6.1
v 0.6 2.2 6.1
v 0.7 2.2 6.1
v 0.9 2.2 6.1
v 1 2.2 6.1
v -1.1 2.2 6
v -0.9 2.2 6
v 0.7 2.2 6
v 0.9 2.2 6
v -1.3 2.3 6.5
v -0.7 2.3 6.5
v 0.5 2.3 6.5
v 1.1 2.3 6.5
v -1.2 2.3 6.4
v -0.8 2.3 6.4
v 0.6 2.3 6.4
v 1 2.3 6.4
v -1.2 2.3 6
v -0.8 2.3 6
v 0.6 2.3 6
v 1 2.3 6
v -1.3 2.3 5.9
v -0.7 2.3 5.9
v 0.5 2.3 5.9
v 1.1 2.3 5.9
v -0.7 1.5 7.6
v -0.5 1.5 7.6
v 0.3 1.5 7.6
v 0.5 1.5 7.6
v -0.7 1.5 7.1
v -0.5 1.5 7.1
v 0.3 1.5 7.1
v 0.5 1.5 7.1
v -0.7 1.5 6.8
v -0.5 1.5 6.8
v 0.3 1.5 6.8
v 0.5 1.5 6.8
v -0.7 1.5 6.7
v 0.5 1.5 6.7
v -1.1 1.6 7.6
v -0.9 1.6 7.6
v 0.7 1.6 7.6
v 0.9 1.6 7.6
v -0.7 1.6 7.1
v -0.5 1.6 7.1
v 0.3 1.6 7.1
v 0.5 1.6 7.1
v -1.1 1.6 7
v -0.9 1.6 7
v 0.7 1.6 7
v 0.9 1.6 7
v -0.7 1.6 6.9
v -0.5 1.6 6.9
v 0.3 1.6 6.9
v 0.5 1.6 6.9
v -1.1 1.7 7
v -0.9 1.7 7
v 0.7 1.7 7
v 0.9 1.7 7
v -0.7 1.7 6.9
v -0.5 1.7 6.9
v 0.3 1.7 6.9
v 0.5 1.7 6.9
v -1.1 1.7 6.8
v -0.9 1.7 6.8
v 0.7 1.7 6.8
v 0.9 1.7 6.8
v -0.7 1.7 6.7
v -0.5 1.7 6.7
v 0.3 1.7 6.7
v 0.5 1.7 6.7
v -1.3 1.8 7.6
v -1.1 1.8 7.6
v -0.9 1.8 7.6
v -0.7 1.8 7.6
v 0.5 1.8 7.6
v 0.7 1.8 7.6
v 0.9 1.8 7.6
v 1.1 1.8 7.6
v -1.3 1.8 7.2
v -1.1 1.8 7.2
v -0.9 1.8 7.2
v -0.7 1.8 7.2
v 0.5 1.8 7.2
v 0.7 1.8 7.2
v 0.9 1.8 7.2
v 1.1 1.8 7.2
v -1.1 1.8 6.8
v -0.9 1.8 6.8
v 0.7 1.8 6.8
v 0.9 1.8 6.8
v -0.7 1.8 6.7
v -0.5 1.8 6.7
v 0.3 1.8 6.7
v 0.5 1.8 6.7
v -1.1 1.8 6.5
v -0.9 1.8 6.5
v -0.7 1.8 6.5
v -0.5 1.8 6.5
v 0.3 1.8 6.5
v 0.5 1.8 6.5
v 0.7 1.8 6.5
v 0.9 1.8 6.5
v -1.3 1.9 7.2
v -1.1 1.9 7.2
v -0.9 1.9 7.2
v -0.7 1.9 7.2
v 0.5 1.9 7.2
v 0.7 1.9 7.2
v 0.9 1.9 7.2
v 1.1 1.9 7.2
v -1.3 1.9 6.5
v -1.1 1.9 6.5
v -0.9 1.9 6.5
v -0.7 1.9 6.5
v -0.5 1.9 6.5
v 0.3 1.9 6.5
v 0.5 1.9 6.5
v 0.7 1.9 6.5
v 0.9 1.9 6.5
v 1.1 1.9 6.5
v -0.7 1.9 5.9
v -0.5 1.9 5.9
v 0.3 1.9 5.9
v 0.5 1.9 5.9
v -1.3 2 6.5
v -0.7 2 6.5
v 0.5 2 6.5
v 1.1 2 6.5
v -1.2 2 6.4
v -0.8 2 6.4
v 0.6 2 6.4
v 1 2 6.4
v -1.2 2 6
v -0.8 2 6
v 0.6 2 6
v 1 2 6
v -1.3 2 5.9
v -0.7 2 5.9
v 0.5 2 5.9
v 1.1 2 5.9
v -1.1 2.1 6.4
v -0.9 2.1 6.4
v 0.7 2.1 6.4
v 0.9 2.1 6.4
v -1.2 2.1 6.3
v -1.1 2.1 6.3
v -0.9 2.1 6.3
v -0.8 2.1 6.3
v 0.6 2.1 6.3
v 0.7 2.1 6.3
v 0.9 2.1 6.3
v 1 2.1 6.3
v -1.2 2.1 6.1
v -1.1 2.1 6.1
v -0.9 2.1 6.1
v -0.8 2.1 6.1
v 0.6 2.1 6.1
v 0.7 2.1 6.1
v 0.9 2.1 6.1
v 1 2.1 6.1
v -1.1 2.1 6
v -0.9 2.1 6
v 0.7 2.1 6
v 0.9 2.1 6
v -1.3 2.4 6.5
v -0.7 2.4 6.5
v 0.5 2.4 6.5
v 1.1 2.4 6.5
v -1.2 2.4 6.4
v -0.8 2.4 6.4
v 0.6 2.4 6.4
v 1 2.4 6.4
v -1.2 2.4 6
v -0.8 2.4 6
v 0.6 2.4 6
v 1 2.4 6
v -1.3 2.4 5.9
v -0.7 2.4 5.9
v 0.5 2.4 5.9
v 1.1 2.4 5.9
v -1.2 2.5 6.4
v -0.8 2.5 6.4
v 0.6 2.5 6.4
v 1 2.5 6.4
v -1.2 2.5 6
v -0.8 2.5 6
v 0.6 2.5 6
v 1 2.5 6

# faces
f 3/3/1 2/3/1 1/3/1
f 4/3/1 2/3/1 3/3/1
f 5/5/1 4/5/1 3/5/1
f 5/3/1 2/3/1 4/3/1
f 6/3/1 2/3/1 5/3/1
f 7/5/1 5/5/1 3/5/1
f 7/5/1 6/5/1 5/5/1
f 8/5/1 6/5/1 7/5/1
f 9/5/1 6/5/1 8/5/1
f 10/3/1 2/3/1 6/3/1
f 10/5/1 6/5/1 9/5/1
f 11/3/1 2/3/1 10/3/1
f 12/3/1 2/3/1 11/3/1
f 15/3/1 14/3/1 13/3/1
f 16/3/1 14/3/1 15/3/1
f 19/3/1 18/3/1 17/3/1
f 20/3/1 18/3/1 19/3/1
f 21/3/1 19/3/1 17/3/1
f 22/3/1 18/3/1 20/3/1
f 23/3/1 21/3/1 17/3/1
f 23/3/1 22/3/1 21/3/1
f 24/3/1 18/3/1 22/3/1
f 24/3/1 22/3/1 23/3/1
f 27/3/1 26/3/1 25/3/1
f 28/3/1 26/3/1 27/3/1
f 31/1/1 30/1/1 29/1/1
f 32/1/1 30/1/1 31/1/1
f 35/5/1 34/5/1 33/5/1
f 37/5/1 35/5/1 33/5/1
f 37/5/1 36/5/1 35/5/1
f 38/5/1 36/5/1 37/5/1
f 39/5/1 36/5/1 38/5/1
f 41/5/1 40/5/1 39/5/1
f 41/5/1 39/5/1 38/5/1
f 42/5/1 40/5/1 41/5/1
f 47/3/1 44/3/1 43/3/1
f 48/3/1 44/3/1 47/3/1
f 49/3/1 46/3/1 45/3/1
f 50/3/1 46/3/1 49/3/1
f 55/3/1 52/3/1 51/3/1
f 56/3/1 52/3/1 55/3/1
f 58/2/1 54/2/1 53/2/1
f 59/2/1 54/2/1 58/2/1
f 60/5/1 57/5/1 56/5/1
f 60/5/1 56/5/1 55/5/1
f 62/5/1 60/5/1 55/5/1
f 62/5/1 61/5/1 60/5/1
f 63/5/1 61/5/1 62/5/1
f 64/5/1 61/5/1 63/5/1
f 66/5/1 64/5/1 63/5/1
f 66/5/1 65/5/1 64/5/1
f 67/5/1 65/5/1 66/5/1
f 69/3/1 68/3/1 67/3/1
f 70/3/1 68/3/1 69/3/1
f 73/3/1 72/3/1 71/3/1
f 74/3/1 72/3/1 73/3/1
f 77/3/1 76/3/1 75/3/1
f 78/3/1 76/3/1 77/3/1
f 79/3/1 77/3/1 75/3/1
f 80/3/1 76/3/1 78/3/1
f 81/3/1 79/3/1 75/3/1
f 81/3/1 80/3/1 79/3/1
f 82/3/1 76/3/1 80/3/1
f 82/3/1 80/3/1 81/3/1
f 85/3/1 84/3/1 83/3/1
f 86/3/1 84/3/1 85/3/1
f 89/1/1 88/1/1 87/1/1
f 90/1/1 88/1/1 89/1/1
f 93/5/1 92/5/1 91/5/1
f 95/5/1 93/5/1 91/5/1
f 95/5/1 94/5/1 93/5/1
f 96/5/1 94/5/1 95/5/1
f 97/5/1 94/5/1 96/5/1
f 99/5/1 98/5/1 97/5/1
f 99/5/1 97/5/1 96/5/1
f 100/5/1 98/5/1 99/5/1
f 105/3/1 102/3/1 101/3/1
f 106/3/1 102/3/1 105/3/1
f 107/3/1 104/3/1 103/3/1
f 108/3/1 104/3/1 107/3/1
f 109/5/2 110/5/2 111/5/2
f 109/5/2 111/5/2 113/5/2
f 111/5/2 112/5/2 113/5/2
f 113/5/2 112/5/2 114/5/2
f 114/5/2 112/5/2 115/5/2
f 115/5/2 116/5/2 117/5/2
f 114/5/2 115/5/2 117/5/2
f 117/5/2 116/5/2 118/5/2
f 119/3/2 120/3/2 123/3/2
f 123/3/2 120/3/2 124/3/2
f 121/3/2 122/3/2 125/3/2
f 125/3/2 122/3/2 126/3/2
f 127/1/2 128/1/2 129/1/2
f 129/1/2 128/1/2 130/1/2
f 131/3/2 132/3/2 133/3/2
f 133/3/2 132/3/2 134/3/2
f 131/3/2 133/3/2 135/3/2
f 134/3/2 132/3/2 136/3/2
f 131/3/2 135/3/2 137/3/2
f 135/3/2 136/3/2 137/3/2
f 136/3/2 132/3/2 138/3/2
f 137/3/2 136/3/2 138/3/2
f 139/3/2 140/3/2 141/3/2
f 141/3/2 140/3/2 142/3/2
f 143/3/2 144/3/2 147/3/2
f 147/3/2 144/3/2 148/3/2
f 145/2/2 146/2/2 150/2/2
f 150/2/2 146/2/2 151/2/2
f 148/5/2 149/5/2 152/5/2
f 147/5/2 148/5/2 152/5/2
f 147/5/2 152/5/2 154/5/2
f 152/5/2 153/5/2 154/5/2
f 154/5/2 153/5/2 155/5/2
f 155/5/2 153/5/2 156/5/2
f 155/5/2 156/5/2 158/5/2
f 156/5/2 157/5/2 158/5/2
f 158/5/2 157/5/2 159/5/2
f 159/3/2 160/3/2 161/3/2
f 161/3/2 160/3/2 162/3/2
f 163/3/2 164/3/2 165/3/2
f 165/3/2 164/3/2 166/3/2
f 167/5/2 168/5/2 169/5/2
f 167/5/2 169/5/2 171/5/2
f 169/5/2 170/5/2 171/5/2
f 171/5/2 170/5/2 172/5/2
f 172/5/2 170/5/2 173/5/2
f 173/5/2 174/5/2 175/5/2
f 172/5/2 173/5/2 175/5/2
f 175/5/2 174/5/2 176/5/2
f 177/3/2 178/3/2 181/3/2
f 181/3/2 178/3/2 182/3/2
f 179/3/2 180/3/2 183/3/2
f 183/3/2 180/3/2 184/3/2
f 185/1/2 186/1/2 187/1/2
f 187/1/2 186/1/2 188/1/2
f 189/3/2 190/3/2 191/3/2
f 191/3/2 190/3/2 192/3/2
f 189/3/2 191/3/2 193/3/2
f 192/3/2 190/3/2 194/3/2
f 189/3/2 193/3/2 195/3/2
f 193/3/2 194/3/2 195/3/2
f 194/3/2 190/3/2 196/3/2
f 195/3/2 194/3/2 196/3/2
f 197/3/2 198/3/2 199/3/2
f 199/3/2 198/3/2 200/3/2
f 201/3/2 202/3/2 203/3/2
f 203/3/2 202/3/2 204/3/2
f 203/5/2 204/5/2 205/5/2
f 204/3/2 202/3/2 205/3/2
f 205/3/2 202/3/2 206/3/2
f 203/5/2 205/5/2 207/5/2
f 205/5/2 206/5/2 207/5/2
f 207/5/2 206/5/2 208/5/2
f 208/5/2 206/5/2 209/5/2
f 206/3/2 202/3/2 210/3/2
f 209/5/2 206/5/2 210/5/2
f 210/3/2 202/3/2 211/3/2
f 211/3/2 202/3/2 212/3/2
f 213/3/2 214/3/2 215/3/2
f 215/3/2 214/3/2 216/3/2
f 220/3/3 218/3/3 217/3/3
f 220/5/3 219/5/3 218/5/3
f 221/5/3 219/5/3 220/5/3
f 222/3/3 220/3/3 217/3/3
f 224/3/3 222/3/3 217/3/3
f 225/3/3 222/3/3 224/3/3
f 226/5/3 223/5/3 222/5/3
f 226/3/3 222/3/3 225/3/3
f 227/5/3 223/5/3 226/5/3
f 228/4/3 225/4/3 224/4/3
f 229/4/3 225/4/3 228/4/3
f 230/3/3 229/3/3 228/3/3
f 231/3/3 229/3/3 230/3/3
f 232/4/3 231/4/3 230/4/3
f 233/4/3 231/4/3 232/4/3
f 236/3/3 233/3/3 232/3/3
f 236/5/3 235/5/3 234/5/3
f 236/3/3 234/3/3 233/3/3
f 237/5/3 235/5/3 236/5/3
f 238/3/3 236/3/3 232/3/3
f 240/3/3 238/3/3 232/3/3
f 241/5/3 239/5/3 238/5/3
f 241/3/3 238/3/3 240/3/3
f 242/5/3 239/5/3 241/5/3
f 245/5/3 244/5/3 243/5/3
f 246/5/3 244/5/3 245/5/3
f 249/5/3 248/5/3 247/5/3
f 250/5/3 248/5/3 249/5/3
f 253/5/3 252/5/3 251/5/3
f 254/5/3 252/5/3 253/5/3
f 257/5/3 256/5/3 255/5/3
f 258/5/3 256/5/3 257/5/3
f 261/4/3 260/4/3 259/4/3
f 262/4/3 260/4/3 261/4/3
f 263/3/3 262/3/3 261/3/3
f 264/3/3 262/3/3 263/3/3
f 265/4/3 264/4/3 263/4/3
f 266/4/3 264/4/3 265/4/3
f 269/3/3 268/3/3 267/3/3
f 270/3/3 268/3/3 269/3/3
f 273/3/3 272/3/3 271/3/3
f 274/3/3 272/3/3 273/3/3
f 277/4/3 276/4/3 275/4/3
f 278/4/3 276/4/3 277/4/3
f 279/3/3 278/3/3 277/3/3
f 280/3/3 278/3/3 279/3/3
f 281/4/3 280/4/3 279/4/3
f 282/4/3 280/4/3 281/4/3
f 285/3/3 284/3/3 283/3/3
f 286/3/3 284/3/3 285/3/3
f 289/3/3 288/3/3 287/3/3
f 290/3/3 288/3/3 289/3/3
f 295/4/3 292/4/3 291/4/3
f 296/4/3 294/4/3 293/4/3
f 297/4/3 294/4/3 296/4/3
f 298/4/3 295/4/3 291/4/3
f 299/3/3 297/3/3 296/3/3
f 300/3/3 297/3/3 299/3/3
f 301/4/3 298/4/3 291/4/3
f 302/4/3 298/4/3 301/4/3
f 303/4/3 300/4/3 299/4/3
f 304/4/3 300/4/3 303/4/3
f 310/3/3 306/3/3 305/3/3
f 311/3/3 310/3/3 309/3/3
f 312/3/3 306/3/3 310/3/3
f 312/3/3 310/3/3 311/3/3
f 314/3/3 306/3/3 312/3/3
f 315/3/3 306/3/3 314/3/3
f 316/3/3 308/3/3 307/3/3
f 317/3/3 308/3/3 316/3/3
f 318/4/3 314/4/3 313/4/3
f 319/4/3 314/4/3 318/4/3
f 320/3/3 319/3/3 318/3/3
f 321/3/3 319/3/3 320/3/3
f 322/4/3 321/4/3 320/4/3
f 323/4/3 321/4/3 322/4/3
f 328/3/3 324/3/3 323/3/3
f 329/3/3 328/3/3 327/3/3
f 330/3/3 324/3/3 328/3/3
f 330/3/3 328/3/3 329/3/3
f 331/3/3 324/3/3 330/3/3
f 332/3/3 324/3/3 331/3/3
f 333/3/3 326/3/3 325/3/3
f 334/3/3 326/3/3 333/3/3
f 339/3/3 336/3/3 335/3/3
f 340/3/3 336/3/3 339/3/3
f 341/3/3 339/3/3 335/3/3
f 342/3/3 336/3/3 340/3/3
f 343/3/3 341/3/3 335/3/3
f 343/3/3 342/3/3 341/3/3
f 344/3/3 336/3/3 342/3/3
f 344/3/3 342/3/3 343/3/3
f 345/3/3 338/3/3 337/3/3
f 346/3/3 338/3/3 345/3/3
f 351/3/3 348/3/3 347/3/3
f 352/3/3 348/3/3 351/3/3
f 353/3/3 351/3/3 347/3/3
f 354/3/3 348/3/3 352/3/3
f 355/3/3 353/3/3 347/3/3
f 355/3/3 354/3/3 353/3/3
f 356/3/3 348/3/3 354/3/3
f 356/3/3 354/3/3 355/3/3
f 357/3/3 350/3/3 349/3/3
f 358/3/3 350/3/3 357/3/3
f 361/1/3 360/1/3 359/1/3
f 362/1/3 360/1/3 361/1/3
f 365/1/3 364/1/3 363/1/3
f 366/1/3 364/1/3 365/1/3
f 369/3/3 368/3/3 367/3/3
f 370/3/3 368/3/3 369/3/3
f 373/3/3 372/3/3 371/3/3
f 374/3/3 372/3/3 373/3/3
f 377/3/3 376/3/3 375/3/3
f 378/3/3 376/3/3 377/3/3
f 381/3/3 380/3/3 379/3/3
f 382/3/3 380/3/3 381/3/3
f 383/4/4 384/4/4 385/4/4
f 385/4/4 384/4/4 386/4/4
f 385/3/4 386/3/4 387/3/4
f 387/3/4 386/3/4 388/3/4
f 387/4/4 388/4/4 389/4/4
f 389/4/4 388/4/4 390/4/4
f 391/3/4 392/3/4 393/3/4
f 393/3/4 392/3/4 394/3/4
f 395/3/4 396/3/4 397/3/4
f 397/3/4 396/3/4 398/3/4
f 399/3/4 400/3/4 401/3/4
f 401/3/4 400/3/4 402/3/4
f 403/3/4 404/3/4 405/3/4
f 405/3/4 404/3/4 406/3/4
f 407/1/4 408/1/4 409/1/4
f 409/1/4 408/1/4 410/1/4
f 411/1/4 412/1/4 413/1/4
f 413/1/4 412/1/4 414/1/4
f 415/3/4 416/3/4 419/3/4
f 419/3/4 416/3/4 420/3/4
f 415/3/4 419/3/4 421/3/4
f 420/3/4 416/3/4 422/3/4
f 415/3/4 421/3/4 423/3/4
f 421/3/4 422/3/4 423/3/4
f 422/3/4 416/3/4 424/3/4
f 423/3/4 422/3/4 424/3/4
f 417/3/4 418/3/4 425/3/4
f 425/3/4 418/3/4 426/3/4
f 427/3/4 428/3/4 431/3/4
f 431/3/4 428/3/4 432/3/4
f 427/3/4 431/3/4 433/3/4
f 432/3/4 428/3/4 434/3/4
f 427/3/4 433/3/4 435/3/4
f 433/3/4 434/3/4 435/3/4
f 434/3/4 428/3/4 436/3/4
f 435/3/4 434/3/4 436/3/4
f 429/3/4 430/3/4 437/3/4
f 437/3/4 430/3/4 438/3/4
f 439/3/4 440/3/4 443/3/4
f 443/3/4 440/3/4 444/3/4
f 444/3/4 440/3/4 445/3/4
f 441/3/4 442/3/4 446/3/4
f 446/3/4 442/3/4 447/3/4
f 439/3/4 443/3/4 448/3/4
f 443/4/4 444/4/4 448/4/4
f 448/4/4 444/4/4 449/4/4
f 439/3/4 448/3/4 450/3/4
f 448/3/4 449/3/4 450/3/4
f 450/3/4 449/3/4 451/3/4
f 439/3/4 450/3/4 452/3/4
f 450/4/4 451/4/4 452/4/4
f 452/4/4 451/4/4 453/4/4
f 452/3/4 453/3/4 457/3/4
f 439/3/4 452/3/4 457/3/4
f 453/3/4 454/3/4 457/3/4
f 457/3/4 454/3/4 458/3/4
f 455/3/4 456/3/4 459/3/4
f 459/3/4 456/3/4 460/3/4
f 467/4/5 463/4/5 462/4/5
f 467/3/5 464/3/5 463/3/5
f 468/4/5 465/4/5 464/4/5
f 468/3/5 464/3/5 467/3/5
f 469/3/5 462/3/5 461/3/5
f 469/4/5 467/4/5 462/4/5
f 469/4/5 468/4/5 467/4/5
f 470/4/5 465/4/5 468/4/5
f 470/4/5 468/4/5 469/4/5
f 470/3/5 466/3/5 465/3/5
f 471/3/5 469/3/5 461/3/5
f 471/3/5 470/3/5 469/3/5
f 472/3/5 466/3/5 470/3/5
f 472/3/5 470/3/5 471/3/5
f 477/4/5 474/4/5 473/4/5
f 478/3/5 475/3/5 474/3/5
f 478/4/5 474/4/5 477/4/5
f 479/4/5 476/4/5 475/4/5
f 479/3/5 475/3/5 478/3/5
f 480/4/5 476/4/5 479/4/5
f 486/3/5 482/3/5 481/3/5
f 487/3/5 482/3/5 486/3/5
f 490/3/5 484/3/5 483/3/5
f 491/3/5 484/3/5 490/3/5
f 493/3/5 486/3/5 485/3/5
f 494/3/5 486/3/5 493/3/5
f 495/3/5 488/3/5 487/3/5
f 496/3/5 488/3/5 495/3/5
f 497/3/5 490/3/5 489/3/5
f 498/3/5 490/3/5 497/3/5
f 499/3/5 492/3/5 491/3/5
f 500/3/5 492/3/5 499/3/5
f 501/3/5 495/3/5 494/3/5
f 502/3/5 495/3/5 501/3/5
f 503/3/5 499/3/5 498/3/5
f 504/3/5 499/3/5 503/3/5
f 509/3/5 506/3/5 505/3/5
f 510/3/5 506/3/5 509/3/5
f 511/3/5 508/3/5 507/3/5
f 512/3/5 508/3/5 511/3/5
f 513/3/5 509/3/5 505/3/5
f 514/3/5 506/3/5 510/3/5
f 515/3/5 511/3/5 507/3/5
f 516/3/5 508/3/5 512/3/5
f 517/3/5 513/3/5 505/3/5
f 517/3/5 514/3/5 513/3/5
f 518/3/5 506/3/5 514/3/5
f 518/3/5 514/3/5 517/3/5
f 519/3/5 516/3/5 515/3/5
f 519/3/5 515/3/5 507/3/5
f 520/3/5 508/3/5 516/3/5
f 520/3/5 516/3/5 519/3/5
f 521/4/6 522/4/6 525/4/6
f 522/3/6 523/3/6 526/3/6
f 525/4/6 522/4/6 526/4/6
f 523/4/6 524/4/6 527/4/6
f 526/3/6 523/3/6 527/3/6
f 527/4/6 524/4/6 528/4/6
f 529/4/6 530/4/6 533/4/6
f 531/4/6 532/4/6 533/4/6
f 530/4/6 531/4/6 533/4/6
f 533/4/6 532/4/6 534/4/6
f 535/3/6 536/3/6 543/3/6
f 543/3/6 536/3/6 544/3/6
f 537/3/6 538/3/6 545/3/6
f 545/3/6 538/3/6 546/3/6
f 539/4/6 540/4/6 547/4/6
f 540/3/6 541/3/6 548/3/6
f 547/4/6 540/4/6 548/4/6
f 541/4/6 542/4/6 549/4/6
f 548/3/6 541/3/6 549/3/6
f 549/4/6 542/4/6 550/4/6
f 551/3/6 552/3/6 559/3/6
f 559/3/6 552/3/6 560/3/6
f 553/3/6 554/3/6 561/3/6
f 561/3/6 554/3/6 562/3/6
f 555/4/6 556/4/6 563/4/6
f 556/3/6 557/3/6 564/3/6
f 563/4/6 556/4/6 564/4/6
f 557/4/6 558/4/6 565/4/6
f 564/3/6 557/3/6 565/3/6
f 565/4/6 558/4/6 566/4/6
f 567/5/6 568/5/6 575/5/6
f 575/5/6 568/5/6 576/5/6
f 569/5/6 570/5/6 577/5/6
f 577/5/6 570/5/6 578/5/6
f 571/5/6 572/5/6 579/5/6
f 579/5/6 572/5/6 580/5/6
f 573/5/6 574/5/6 581/5/6
f 581/5/6 574/5/6 582/5/6
f 583/3/6 584/3/6 591/3/6
f 591/3/6 584/3/6 592/3/6
f 587/4/6 588/4/6 593/4/6
f 588/3/6 589/3/6 594/3/6
f 593/4/6 588/4/6 594/4/6
f 589/4/6 590/4/6 595/4/6
f 594/3/6 589/3/6 595/3/6
f 595/4/6 590/4/6 596/4/6
f 585/3/6 586/3/6 597/3/6
f 597/3/6 586/3/6 598/3/6
f 599/5/6 600/5/6 607/5/6
f 607/5/6 600/5/6 608/5/6
f 601/5/6 602/5/6 609/5/6
f 609/5/6 602/5/6 610/5/6
f 603/5/6 604/5/6 613/5/6
f 613/5/6 604/5/6 614/5/6
f 605/5/6 606/5/6 615/5/6
f 615/5/6 606/5/6 616/5/6
f 610/4/6 611/4/6 617/4/6
f 611/3/6 612/3/6 618/3/6
f 617/4/6 611/4/6 618/4/6
f 612/4/6 613/4/6 619/4/6
f 618/3/6 612/3/6 619/3/6
f 619/4/6 613/4/6 620/4/6
f 621/3/6 622/3/6 625/3/6
f 625/3/6 622/3/6 626/3/6
f 623/3/6 624/3/6 627/3/6
f 627/3/6 624/3/6 628/3/6
f 621/3/6 625/3/6 629/3/6
f 626/3/6 622/3/6 630/3/6
f 623/3/6 627/3/6 631/3/6
f 628/3/6 624/3/6 632/3/6
f 621/3/6 629/3/6 633/3/6
f 629/3/6 630/3/6 633/3/6
f 630/3/6 622/3/6 634/3/6
f 633/3/6 630/3/6 634/3/6
f 631/3/6 632/3/6 635/3/6
f 623/3/6 631/3/6 635/3/6
f 632/3/6 624/3/6 636/3/6
f 635/3/6 632/3/6 636/3/6
f 637/3/6 638/3/6 642/3/6
f 642/3/6 638/3/6 643/3/6
f 639/3/6 640/3/6 646/3/6
f 646/3/6 640/3/6 647/3/6
f 641/3/6 642/3/6 649/3/6
f 649/3/6 642/3/6 650/3/6
f 643/3/6 644/3/6 651/3/6
f 651/3/6 644/3/6 652/3/6
f 645/3/6 646/3/6 653/3/6
f 653/3/6 646/3/6 654/3/6
f 647/3/6 648/3/6 655/3/6
f 655/3/6 648/3/6 656/3/6
f 650/3/6 651/3/6 657/3/6
f 657/3/6 651/3/6 658/3/6
f 654/3/6 655/3/6 659/3/6
f 659/3/6 655/3/6 660/3/6
f 661/3/6 662/3/6 665/3/6
f 665/3/6 662/3/6 666/3/6
f 663/3/6 664/3/6 667/3/6
f 667/3/6 664/3/6 668/3/6
f 661/3/6 665/3/6 669/3/6
f 666/3/6 662/3/6 670/3/6
f 663/3/6 667/3/6 671/3/6
f 668/3/6 664/3/6 672/3/6
f 661/3/6 669/3/6 673/3/6
f 669/3/6 670/3/6 673/3/6
f 670/3/6 662/3/6 674/3/6
f 673/3/6 670/3/6 674/3/6
f 671/3/6 672/3/6 675/3/6
f 663/3/6 671/3/6 675/3/6
f 672/3/6 664/3/6 676/3/6
f 675/3/6 672/3/6 676/3/6
f 677/3/6 678/3/6 681/3/6
f 681/3/6 678/3/6 682/3/6
f 679/3/6 680/3/6 683/3/6
f 683/3/6 680/3/6 684/3/6
