# MagicaVoxel @ Ephtracy

# group
o 

# material
mtllib obstacle-left front.mtl
usemtl palette

# normals
vn -1 0 0
vn 1 0 0
vn 0 0 1
vn 0 0 -1
vn 0 -1 0
vn 0 1 0

# texcoords
vt 0.974609 0.5
vt 0.986328 0.5

# verts
v -5.4 1.9 3.4
v -5.4 1.9 3
v -5.4 2.1 3.2
v -5.4 2.1 3
v -5.4 2.3 3.4
v -5.4 2.3 3.2
v -5.3 2.1 3.6
v -5.3 2.1 3.5
v -5.3 2.2 3.6
v -5.3 2.2 3.5
v -5.3 2.2 3.4
v -5.3 2.3 3.5
v -5.3 2.3 3.4
v -5.2 1.9 3.6
v -5.2 1.9 3.4
v -5.2 1.9 3
v -5.2 1.9 2.8
v -5.2 2.1 3.6
v -5.2 2.1 3.5
v -5.2 2.1 3.2
v -5.2 2.1 3
v -5.2 2.1 2.8
v -5.2 2.2 3.6
v -5.2 2.2 3.5
v -5.2 2.2 3.4
v -5.2 2.3 3.6
v -5.2 2.3 3.5
v -5.2 2.3 3.4
v -5.2 2.3 3.2
v -5.2 2.3 3
v -5.2 2.4 3.5
v -5.2 2.4 3.4
v -5.1 2.2 3.8
v -5.1 2.2 3.7
v -5.1 2.3 3.8
v -5.1 2.3 3.7
v -5 1.9 3.8
v -5 1.9 3.6
v -5 2.2 3.9
v -5 2.2 3.8
v -5 2.2 3.7
v -5 2.3 3.9
v -5 2.3 3.8
v -5 2.3 3.7
v -5 2.3 3.6
v -5 2.4 3.8
v -5 2.4 3.7
v -4.9 2.1 3.9
v -4.9 2.1 3.8
v -4.9 2.2 3.9
v -4.9 2.2 3.8
v -4.9 2.3 3.7
v -4.9 2.3 3.6
v -4.9 2.4 3.7
v -4.9 2.4 3.6
v -4.8 1.9 4.2
v -4.8 1.9 3.8
v -4.8 2.1 3.9
v -4.8 2.1 3.8
v -4.8 2.2 3.9
v -4.8 2.2 3.8
v -4.8 2.3 4.2
v -4.8 2.3 3.8
v -4.7 2.3 4
v -4.7 2.3 3.9
v -4.7 2.4 4
v -4.7 2.4 3.9
v -5.2 2.2 3.3
v -5.2 2.2 3.2
v -5.2 2.3 3.3
v -5.2 2.3 3.2
v -5.1 1.9 3.2
v -5.1 1.9 3.1
v -5.1 2.1 3.3
v -5.1 2.1 3.2
v -5.1 2.1 3.1
v -5.1 2.2 3.4
v -5.1 2.2 3.3
v -5.1 2.2 3.2
v -5.1 2.3 3.5
v -5.1 2.3 3.4
v -5.1 2.3 3.3
v -5.1 2.4 3.5
v -5.1 2.4 3.4
v -5 1.9 3.4
v -5 1.9 3.2
v -5 1.9 3.1
v -5 1.9 3
v -5 1.9 2.9
v -5 1.9 2.8
v -5 2 3.4
v -5 2 3.3
v -5 2 3
v -5 2 2.9
v -5 2.1 3.6
v -5 2.1 3.4
v -5 2.1 3.3
v -5 2.1 3.2
v -5 2.1 3.1
v -5 2.1 3
v -5 2.1 2.8
v -5 2.2 3.4
v -5 2.2 3.3
v -5 2.3 3.6
v -5 2.3 3.4
v -5 2.3 3.2
v -5 2.3 3
v -4.9 1.9 3
v -4.9 1.9 2.9
v -4.9 2 3.4
v -4.9 2 3.3
v -4.9 2 3
v -4.9 2 2.9
v -4.9 2.1 3.4
v -4.9 2.1 3.3
v -4.9 2.2 3.9
v -4.9 2.2 3.8
v -4.9 2.3 3.9
v -4.9 2.3 3.8
v -4.9 2.3 3.7
v -4.9 2.4 3.8
v -4.9 2.4 3.7
v -4.8 1.9 3.5
v -4.8 1.9 3.4
v -4.8 2 3.6
v -4.8 2 3.5
v -4.8 2.1 3.6
v -4.8 2.1 3.4
v -4.8 2.3 3.7
v -4.8 2.3 3.6
v -4.8 2.4 3.7
v -4.8 2.4 3.6
v -4.7 1.9 3.7
v -4.7 1.9 3.5
v -4.7 2 3.6
v -4.7 2 3.5
v -4.7 2.1 3.7
v -4.7 2.1 3.6
v -4.6 1.9 4
v -4.6 1.9 3.8
v -4.6 1.9 3.7
v -4.6 2.1 4.2
v -4.6 2.1 4.1
v -4.6 2.1 4
v -4.6 2.1 3.9
v -4.6 2.1 3.8
v -4.6 2.1 3.7
v -4.6 2.1 3.6
v -4.6 2.2 4.1
v -4.6 2.2 4
v -4.6 2.2 3.9
v -4.6 2.2 3.7
v -4.6 2.3 4.2
v -4.6 2.3 4
v -4.6 2.3 3.9
v -4.6 2.3 3.6
v -4.6 2.4 4
v -4.6 2.4 3.9
v -4.5 2.1 4.1
v -4.5 2.1 4
v -4.5 2.1 3.9
v -4.5 2.1 3.7
v -4.5 2.2 4.1
v -4.5 2.2 4
v -4.5 2.2 3.9
v -4.5 2.2 3.7
v -4.5 2.3 4
v -4.5 2.3 3.9
v -4.4 1.9 4.2
v -4.4 1.9 4
v -4.4 2.1 4.2
v -4.4 2.1 4
v -4.8 1.9 4.2
v -4.8 2.3 4.2
v -4.6 2.1 4.2
v -4.6 2.3 4.2
v -4.4 1.9 4.2
v -4.4 2.1 4.2
v -4.6 2.1 4.1
v -4.6 2.2 4.1
v -4.5 2.1 4.1
v -4.5 2.2 4.1
v -4.7 2.3 4
v -4.7 2.4 4
v -4.6 2.2 4
v -4.6 2.3 4
v -4.6 2.4 4
v -4.5 2.2 4
v -4.5 2.3 4
v -5 2.2 3.9
v -5 2.3 3.9
v -4.9 2.1 3.9
v -4.9 2.2 3.9
v -4.9 2.3 3.9
v -4.8 2.1 3.9
v -4.8 2.2 3.9
v -4.6 2.1 3.9
v -4.6 2.2 3.9
v -4.5 2.1 3.9
v -4.5 2.2 3.9
v -5.1 2.2 3.8
v -5.1 2.3 3.8
v -5 1.9 3.8
v -5 2.2 3.8
v -5 2.3 3.8
v -5 2.4 3.8
v -4.9 2.1 3.8
v -4.9 2.2 3.8
v -4.9 2.3 3.8
v -4.9 2.4 3.8
v -4.8 1.9 3.8
v -4.8 2.1 3.8
v -4.8 2.2 3.8
v -4.8 2.3 3.8
v -4.9 2.3 3.7
v -4.9 2.4 3.7
v -4.8 2.3 3.7
v -4.8 2.4 3.7
v -5.3 2.1 3.6
v -5.3 2.2 3.6
v -5.2 1.9 3.6
v -5.2 2.1 3.6
v -5.2 2.2 3.6
v -5.2 2.3 3.6
v -5 1.9 3.6
v -5 2.3 3.6
v -5.3 2.2 3.5
v -5.3 2.3 3.5
v -5.2 2.2 3.5
v -5.2 2.3 3.5
v -5.2 2.4 3.5
v -5.1 2.3 3.5
v -5.1 2.4 3.5
v -5.4 1.9 3.4
v -5.4 2.3 3.4
v -5.3 2.2 3.4
v -5.3 2.3 3.4
v -5.2 1.9 3.4
v -5.2 2.2 3.4
v -5.2 2.2 3.2
v -5.2 2.3 3.2
v -5.1 2.1 3.2
v -5.1 2.2 3.2
v -5 2.1 3.2
v -5 2.3 3.2
v -5.1 1.9 3.1
v -5.1 2.1 3.1
v -5 1.9 3.1
v -5 2.1 3.1
v -5 1.9 3
v -5 2 3
v -4.9 1.9 3
v -4.9 2 3
v -4.6 1.9 4
v -4.6 2.1 4
v -4.6 2.2 4
v -4.5 2.1 4
v -4.5 2.2 4
v -4.4 1.9 4
v -4.4 2.1 4
v -4.7 2.3 3.9
v -4.7 2.4 3.9
v -4.6 2.2 3.9
v -4.6 2.3 3.9
v -4.6 2.4 3.9
v -4.5 2.2 3.9
v -4.5 2.3 3.9
v -5.1 2.2 3.7
v -5.1 2.3 3.7
v -5 2.2 3.7
v -5 2.3 3.7
v -5 2.4 3.7
v -4.9 2.3 3.7
v -4.9 2.4 3.7
v -4.7 1.9 3.7
v -4.7 2.1 3.7
v -4.6 1.9 3.7
v -4.6 2.1 3.7
v -4.6 2.2 3.7
v -4.5 2.1 3.7
v -4.5 2.2 3.7
v -5 2.1 3.6
v -5 2.3 3.6
v -4.9 2.3 3.6
v -4.9 2.4 3.6
v -4.8 2 3.6
v -4.8 2.1 3.6
v -4.8 2.3 3.6
v -4.8 2.4 3.6
v -4.7 2 3.6
v -4.7 2.1 3.6
v -4.6 2.1 3.6
v -4.6 2.3 3.6
v -5.3 2.1 3.5
v -5.3 2.2 3.5
v -5.2 2.1 3.5
v -5.2 2.2 3.5
v -4.8 1.9 3.5
v -4.8 2 3.5
v -4.7 1.9 3.5
v -4.7 2 3.5
v -5.2 2.3 3.4
v -5.2 2.4 3.4
v -5.1 2.2 3.4
v -5.1 2.3 3.4
v -5.1 2.4 3.4
v -5 1.9 3.4
v -5 2 3.4
v -5 2.2 3.4
v -5 2.3 3.4
v -4.9 2 3.4
v -4.9 2.1 3.4
v -4.8 1.9 3.4
v -4.8 2.1 3.4
v -5.2 2.2 3.3
v -5.2 2.3 3.3
v -5.1 2.1 3.3
v -5.1 2.2 3.3
v -5.1 2.3 3.3
v -5 2 3.3
v -5 2.1 3.3
v -5 2.2 3.3
v -4.9 2 3.3
v -4.9 2.1 3.3
v -5.4 2.1 3.2
v -5.4 2.3 3.2
v -5.2 2.1 3.2
v -5.2 2.3 3.2
v -5.1 1.9 3.2
v -5.1 2.1 3.2
v -5 1.9 3.2
v -5 2.1 3.2
v -5.4 1.9 3
v -5.4 2.1 3
v -5.2 1.9 3
v -5.2 2.1 3
v -5.2 2.3 3
v -5 2.1 3
v -5 2.3 3
v -5 1.9 2.9
v -5 2 2.9
v -4.9 1.9 2.9
v -4.9 2 2.9
v -5.2 1.9 2.8
v -5.2 2.1 2.8
v -5 1.9 2.8
v -5 2.1 2.8
v -4.8 1.9 4.2
v -4.4 1.9 4.2
v -4.6 1.9 4
v -4.4 1.9 4
v -5 1.9 3.8
v -4.8 1.9 3.8
v -4.6 1.9 3.8
v -4.7 1.9 3.7
v -4.6 1.9 3.7
v -5.2 1.9 3.6
v -5 1.9 3.6
v -4.8 1.9 3.5
v -4.7 1.9 3.5
v -5.4 1.9 3.4
v -5.2 1.9 3.4
v -5 1.9 3.4
v -4.8 1.9 3.4
v -5.2 1.9 3.2
v -5.1 1.9 3.2
v -5 1.9 3.2
v -5.1 1.9 3.1
v -5 1.9 3.1
v -5.4 1.9 3
v -5.2 1.9 3
v -5 1.9 3
v -4.9 1.9 3
v -5 1.9 2.9
v -4.9 1.9 2.9
v -5.2 1.9 2.8
v -5 1.9 2.8
v -5 2 3.4
v -4.9 2 3.4
v -5 2 3.3
v -4.9 2 3.3
v -4.9 2.1 3.9
v -4.8 2.1 3.9
v -4.6 2.1 3.9
v -4.5 2.1 3.9
v -4.9 2.1 3.8
v -4.8 2.1 3.8
v -4.6 2.1 3.8
v -4.7 2.1 3.7
v -4.6 2.1 3.7
v -4.5 2.1 3.7
v -5.3 2.1 3.6
v -5.2 2.1 3.6
v -4.7 2.1 3.6
v -4.6 2.1 3.6
v -5.3 2.1 3.5
v -5.2 2.1 3.5
v -5.1 2.1 3.2
v -5 2.1 3.2
v -5.1 2.1 3.1
v -5 2.1 3.1
v -4.6 2.2 4
v -4.5 2.2 4
v -5 2.2 3.9
v -4.9 2.2 3.9
v -4.6 2.2 3.9
v -4.5 2.2 3.9
v -5.1 2.2 3.8
v -5 2.2 3.8
v -4.9 2.2 3.8
v -5.1 2.2 3.7
v -5 2.2 3.7
v -5.3 2.2 3.5
v -5.2 2.2 3.5
v -5.3 2.2 3.4
v -5.2 2.2 3.4
v -4.8 2 3.6
v -4.7 2 3.6
v -4.8 2 3.5
v -4.7 2 3.5
v -5 2 3
v -4.9 2 3
v -5 2 2.9
v -4.9 2 2.9
v -4.6 2.1 4.2
v -4.4 2.1 4.2
v -4.6 2.1 4.1
v -4.5 2.1 4.1
v -4.5 2.1 4
v -4.4 2.1 4
v -5 2.1 3.6
v -4.8 2.1 3.6
v -5 2.1 3.4
v -4.9 2.1 3.4
v -4.8 2.1 3.4
v -5.1 2.1 3.3
v -5 2.1 3.3
v -4.9 2.1 3.3
v -5.4 2.1 3.2
v -5.2 2.1 3.2
v -5.1 2.1 3.2
v -5 2.1 3.2
v -5.4 2.1 3
v -5.2 2.1 3
v -5 2.1 3
v -5.2 2.1 2.8
v -5 2.1 2.8
v -4.6 2.2 4.1
v -4.5 2.2 4.1
v -4.6 2.2 4
v -4.5 2.2 4
v -4.9 2.2 3.9
v -4.8 2.2 3.9
v -4.6 2.2 3.9
v -4.5 2.2 3.9
v -4.9 2.2 3.8
v -4.8 2.2 3.8
v -4.6 2.2 3.7
v -4.5 2.2 3.7
v -5.3 2.2 3.6
v -5.2 2.2 3.6
v -5.3 2.2 3.5
v -5.2 2.2 3.5
v -5.1 2.2 3.4
v -5 2.2 3.4
v -5.2 2.2 3.3
v -5.1 2.2 3.3
v -5 2.2 3.3
v -5.2 2.2 3.2
v -5.1 2.2 3.2
v -4.8 2.3 4.2
v -4.6 2.3 4.2
v -4.7 2.3 4
v -4.6 2.3 4
v -4.5 2.3 4
v -5 2.3 3.9
v -4.9 2.3 3.9
v -4.7 2.3 3.9
v -4.6 2.3 3.9
v -4.5 2.3 3.9
v -5.1 2.3 3.8
v -5 2.3 3.8
v -4.9 2.3 3.8
v -4.8 2.3 3.8
v -5.1 2.3 3.7
v -5 2.3 3.7
v -4.9 2.3 3.7
v -4.8 2.3 3.7
v -5.2 2.3 3.6
v -5 2.3 3.6
v -4.9 2.3 3.6
v -4.8 2.3 3.6
v -4.6 2.3 3.6
v -5.3 2.3 3.5
v -5.2 2.3 3.5
v -5.1 2.3 3.5
v -5.4 2.3 3.4
v -5.3 2.3 3.4
v -5.2 2.3 3.4
v -5.1 2.3 3.4
v -5 2.3 3.4
v -5.2 2.3 3.3
v -5.1 2.3 3.3
v -5.4 2.3 3.2
v -5.2 2.3 3.2
v -5 2.3 3.2
v -5.2 2.3 3
v -5 2.3 3
v -4.7 2.4 4
v -4.6 2.4 4
v -4.7 2.4 3.9
v -4.6 2.4 3.9
v -5 2.4 3.8
v -4.9 2.4 3.8
v -5 2.4 3.7
v -4.9 2.4 3.7
v -4.8 2.4 3.7
v -4.9 2.4 3.6
v -4.8 2.4 3.6
v -5.2 2.4 3.5
v -5.1 2.4 3.5
v -5.2 2.4 3.4
v -5.1 2.4 3.4

# faces
f 3/1/1 2/1/1 1/1/1
f 4/1/1 2/1/1 3/1/1
f 5/1/1 3/1/1 1/1/1
f 6/1/1 3/1/1 5/1/1
f 9/2/1 8/2/1 7/2/1
f 10/2/1 8/2/1 9/2/1
f 12/2/1 11/2/1 10/2/1
f 13/2/1 11/2/1 12/2/1
f 18/1/1 15/1/1 14/1/1
f 19/1/1 15/1/1 18/1/1
f 21/1/1 17/1/1 16/1/1
f 22/1/1 17/1/1 21/1/1
f 24/1/1 15/1/1 19/1/1
f 25/1/1 15/1/1 24/1/1
f 26/1/1 24/1/1 23/1/1
f 27/1/1 24/1/1 26/1/1
f 29/1/1 21/1/1 20/1/1
f 30/1/1 21/1/1 29/1/1
f 31/2/1 28/2/1 27/2/1
f 32/2/1 28/2/1 31/2/1
f 35/2/1 34/2/1 33/2/1
f 36/2/1 34/2/1 35/2/1
f 40/1/1 38/1/1 37/1/1
f 41/1/1 38/1/1 40/1/1
f 42/2/1 40/2/1 39/2/1
f 43/2/1 40/2/1 42/2/1
f 44/1/1 38/1/1 41/1/1
f 45/1/1 38/1/1 44/1/1
f 46/2/1 44/2/1 43/2/1
f 47/2/1 44/2/1 46/2/1
f 50/2/1 49/2/1 48/2/1
f 51/2/1 49/2/1 50/2/1
f 54/2/1 53/2/1 52/2/1
f 55/2/1 53/2/1 54/2/1
f 58/1/1 57/1/1 56/1/1
f 59/1/1 57/1/1 58/1/1
f 60/1/1 58/1/1 56/1/1
f 62/1/1 60/1/1 56/1/1
f 62/1/1 61/1/1 60/1/1
f 63/1/1 61/1/1 62/1/1
f 66/2/1 65/2/1 64/2/1
f 67/2/1 65/2/1 66/2/1
f 68/1/2 69/1/2 70/1/2
f 70/1/2 69/1/2 71/1/2
f 72/2/2 73/2/2 75/2/2
f 75/2/2 73/2/2 76/2/2
f 74/2/2 75/2/2 78/2/2
f 78/2/2 75/2/2 79/2/2
f 77/2/2 78/2/2 81/2/2
f 81/2/2 78/2/2 82/2/2
f 80/2/2 81/2/2 83/2/2
f 83/2/2 81/2/2 84/2/2
f 85/1/2 86/1/2 91/1/2
f 91/1/2 86/1/2 92/1/2
f 87/2/2 88/2/2 93/2/2
f 89/1/2 90/1/2 94/1/2
f 92/1/2 86/1/2 97/1/2
f 97/1/2 86/1/2 98/1/2
f 87/2/2 93/2/2 99/2/2
f 93/1/2 94/1/2 100/1/2
f 99/2/2 93/2/2 100/2/2
f 94/1/2 90/1/2 101/1/2
f 100/1/2 94/1/2 101/1/2
f 95/1/2 96/1/2 102/1/2
f 96/2/2 97/2/2 102/2/2
f 102/2/2 97/2/2 103/2/2
f 95/1/2 102/1/2 104/1/2
f 104/1/2 102/1/2 105/1/2
f 98/1/2 99/1/2 106/1/2
f 99/1/2 100/1/2 106/1/2
f 106/1/2 100/1/2 107/1/2
f 108/2/2 109/2/2 112/2/2
f 112/2/2 109/2/2 113/2/2
f 110/2/2 111/2/2 114/2/2
f 114/2/2 111/2/2 115/2/2
f 116/2/2 117/2/2 118/2/2
f 118/2/2 117/2/2 119/2/2
f 119/2/2 120/2/2 121/2/2
f 121/2/2 120/2/2 122/2/2
f 123/1/2 124/1/2 126/1/2
f 125/1/2 126/1/2 127/1/2
f 126/1/2 124/1/2 128/1/2
f 127/1/2 126/1/2 128/1/2
f 129/2/2 130/2/2 131/2/2
f 131/2/2 130/2/2 132/2/2
f 133/2/2 134/2/2 135/2/2
f 135/2/2 134/2/2 136/2/2
f 133/2/2 135/2/2 137/2/2
f 137/2/2 135/2/2 138/2/2
f 139/1/2 140/1/2 144/1/2
f 144/1/2 140/1/2 145/1/2
f 140/2/2 141/2/2 146/2/2
f 145/1/2 140/1/2 146/1/2
f 146/2/2 141/2/2 147/2/2
f 142/1/2 143/1/2 149/1/2
f 144/1/2 145/1/2 150/1/2
f 150/1/2 145/1/2 151/1/2
f 147/1/2 148/1/2 152/1/2
f 142/1/2 149/1/2 153/1/2
f 149/1/2 150/1/2 153/1/2
f 153/1/2 150/1/2 154/1/2
f 151/1/2 152/1/2 155/1/2
f 152/1/2 148/1/2 156/1/2
f 155/1/2 152/1/2 156/1/2
f 154/2/2 155/2/2 157/2/2
f 157/2/2 155/2/2 158/2/2
f 159/2/2 160/2/2 163/2/2
f 163/2/2 160/2/2 164/2/2
f 161/2/2 162/2/2 165/2/2
f 165/2/2 162/2/2 166/2/2
f 164/2/2 165/2/2 167/2/2
f 167/2/2 165/2/2 168/2/2
f 169/1/2 170/1/2 171/1/2
f 171/1/2 170/1/2 172/1/2
f 175/1/3 174/1/3 173/1/3
f 176/1/3 174/1/3 175/1/3
f 177/1/3 175/1/3 173/1/3
f 178/1/3 175/1/3 177/1/3
f 181/2/3 180/2/3 179/2/3
f 182/2/3 180/2/3 181/2/3
f 186/2/3 184/2/3 183/2/3
f 187/2/3 184/2/3 186/2/3
f 188/2/3 186/2/3 185/2/3
f 189/2/3 186/2/3 188/2/3
f 193/2/3 191/2/3 190/2/3
f 194/2/3 191/2/3 193/2/3
f 195/2/3 193/2/3 192/2/3
f 196/2/3 193/2/3 195/2/3
f 199/2/3 198/2/3 197/2/3
f 200/2/3 198/2/3 199/2/3
f 204/2/3 202/2/3 201/2/3
f 205/2/3 202/2/3 204/2/3
f 207/1/3 204/1/3 203/1/3
f 208/1/3 204/1/3 207/1/3
f 209/2/3 206/2/3 205/2/3
f 210/2/3 206/2/3 209/2/3
f 211/1/3 207/1/3 203/1/3
f 212/1/3 207/1/3 211/1/3
f 213/1/3 209/1/3 208/1/3
f 214/1/3 209/1/3 213/1/3
f 217/2/3 216/2/3 215/2/3
f 218/2/3 216/2/3 217/2/3
f 222/2/3 220/2/3 219/2/3
f 223/2/3 220/2/3 222/2/3
f 225/1/3 222/1/3 221/1/3
f 225/1/3 224/1/3 223/1/3
f 225/1/3 223/1/3 222/1/3
f 226/1/3 224/1/3 225/1/3
f 229/2/3 228/2/3 227/2/3
f 230/2/3 228/2/3 229/2/3
f 232/2/3 231/2/3 230/2/3
f 233/2/3 231/2/3 232/2/3
f 236/1/3 235/1/3 234/1/3
f 237/1/3 235/1/3 236/1/3
f 238/1/3 236/1/3 234/1/3
f 239/1/3 236/1/3 238/1/3
f 243/1/3 241/1/3 240/1/3
f 244/1/3 243/1/3 242/1/3
f 245/1/3 241/1/3 243/1/3
f 245/1/3 243/1/3 244/1/3
f 248/2/3 247/2/3 246/2/3
f 249/2/3 247/2/3 248/2/3
f 252/2/3 251/2/3 250/2/3
f 253/2/3 251/2/3 252/2/3
f 254/1/4 255/1/4 257/1/4
f 255/2/4 256/2/4 257/2/4
f 257/2/4 256/2/4 258/2/4
f 254/1/4 257/1/4 259/1/4
f 259/1/4 257/1/4 260/1/4
f 261/2/4 262/2/4 264/2/4
f 264/2/4 262/2/4 265/2/4
f 263/2/4 264/2/4 266/2/4
f 266/2/4 264/2/4 267/2/4
f 268/2/4 269/2/4 270/2/4
f 270/2/4 269/2/4 271/2/4
f 271/2/4 272/2/4 273/2/4
f 273/2/4 272/2/4 274/2/4
f 275/2/4 276/2/4 277/2/4
f 277/2/4 276/2/4 278/2/4
f 278/2/4 279/2/4 280/2/4
f 280/2/4 279/2/4 281/2/4
f 282/1/4 283/1/4 284/1/4
f 282/1/4 284/1/4 287/1/4
f 284/2/4 285/2/4 288/2/4
f 287/1/4 284/1/4 288/1/4
f 288/2/4 285/2/4 289/2/4
f 286/2/4 287/2/4 290/2/4
f 287/1/4 288/1/4 291/1/4
f 290/2/4 287/2/4 291/2/4
f 291/1/4 288/1/4 292/1/4
f 292/1/4 288/1/4 293/1/4
f 294/2/4 295/2/4 296/2/4
f 296/2/4 295/2/4 297/2/4
f 298/2/4 299/2/4 300/2/4
f 300/2/4 299/2/4 301/2/4
f 302/2/4 303/2/4 305/2/4
f 305/2/4 303/2/4 306/2/4
f 304/1/4 305/1/4 309/1/4
f 309/1/4 305/1/4 310/1/4
f 307/1/4 308/1/4 311/1/4
f 307/1/4 311/1/4 313/1/4
f 311/1/4 312/1/4 313/1/4
f 313/1/4 312/1/4 314/1/4
f 315/2/4 316/2/4 318/2/4
f 318/2/4 316/2/4 319/2/4
f 317/2/4 318/2/4 321/2/4
f 321/2/4 318/2/4 322/2/4
f 320/2/4 321/2/4 323/2/4
f 323/2/4 321/2/4 324/2/4
f 325/1/4 326/1/4 327/1/4
f 327/1/4 326/1/4 328/1/4
f 329/1/4 330/1/4 331/1/4
f 331/1/4 330/1/4 332/1/4
f 333/1/4 334/1/4 335/1/4
f 335/1/4 334/1/4 336/1/4
f 336/1/4 337/1/4 338/1/4
f 338/1/4 337/1/4 339/1/4
f 340/2/4 341/2/4 342/2/4
f 342/2/4 341/2/4 343/2/4
f 344/1/4 345/1/4 346/1/4
f 346/1/4 345/1/4 347/1/4
f 350/1/5 349/1/5 348/1/5
f 351/1/5 349/1/5 350/1/5
f 353/1/5 350/1/5 348/1/5
f 354/1/5 350/1/5 353/1/5
f 355/2/5 354/2/5 353/2/5
f 356/2/5 354/2/5 355/2/5
f 358/1/5 353/1/5 352/1/5
f 359/2/5 355/2/5 353/2/5
f 359/1/5 358/1/5 357/1/5
f 359/1/5 353/1/5 358/1/5
f 360/2/5 355/2/5 359/2/5
f 362/1/5 359/1/5 357/1/5
f 363/1/5 359/1/5 362/1/5
f 364/1/5 359/1/5 363/1/5
f 365/1/5 362/1/5 361/1/5
f 365/1/5 363/1/5 362/1/5
f 366/1/5 363/1/5 365/1/5
f 367/1/5 363/1/5 366/1/5
f 368/2/5 366/2/5 365/2/5
f 370/1/5 365/1/5 361/1/5
f 371/2/5 369/2/5 368/2/5
f 371/1/5 365/1/5 370/1/5
f 371/2/5 368/2/5 365/2/5
f 372/2/5 369/2/5 371/2/5
f 374/1/5 372/1/5 371/1/5
f 374/2/5 373/2/5 372/2/5
f 375/2/5 373/2/5 374/2/5
f 376/1/5 374/1/5 371/1/5
f 377/1/5 374/1/5 376/1/5
f 380/2/5 379/2/5 378/2/5
f 381/2/5 379/2/5 380/2/5
f 386/2/5 383/2/5 382/2/5
f 387/2/5 383/2/5 386/2/5
f 388/2/5 385/2/5 384/2/5
f 390/2/5 385/2/5 388/2/5
f 391/2/5 385/2/5 390/2/5
f 394/1/5 390/1/5 389/1/5
f 395/1/5 390/1/5 394/1/5
f 396/2/5 393/2/5 392/2/5
f 397/2/5 393/2/5 396/2/5
f 400/1/5 399/1/5 398/1/5
f 401/1/5 399/1/5 400/1/5
f 406/2/5 403/2/5 402/2/5
f 407/2/5 403/2/5 406/2/5
f 409/2/5 405/2/5 404/2/5
f 410/2/5 405/2/5 409/2/5
f 411/2/5 409/2/5 408/2/5
f 412/2/5 409/2/5 411/2/5
f 415/2/5 414/2/5 413/2/5
f 416/2/5 414/2/5 415/2/5
f 417/2/6 418/2/6 419/2/6
f 419/2/6 418/2/6 420/2/6
f 421/2/6 422/2/6 423/2/6
f 423/2/6 422/2/6 424/2/6
f 425/1/6 426/1/6 427/1/6
f 427/1/6 426/1/6 428/1/6
f 428/1/6 426/1/6 429/1/6
f 429/1/6 426/1/6 430/1/6
f 431/1/6 432/1/6 433/1/6
f 433/1/6 432/1/6 434/1/6
f 434/1/6 432/1/6 435/1/6
f 433/2/6 434/2/6 437/2/6
f 437/2/6 434/2/6 438/2/6
f 436/1/6 437/1/6 441/1/6
f 441/1/6 437/1/6 442/1/6
f 439/1/6 440/1/6 443/1/6
f 443/1/6 440/1/6 444/1/6
f 444/1/6 445/1/6 446/1/6
f 446/1/6 445/1/6 447/1/6
f 448/2/6 449/2/6 450/2/6
f 450/2/6 449/2/6 451/2/6
f 452/2/6 453/2/6 456/2/6
f 456/2/6 453/2/6 457/2/6
f 454/2/6 455/2/6 458/2/6
f 458/2/6 455/2/6 459/2/6
f 460/2/6 461/2/6 462/2/6
f 462/2/6 461/2/6 463/2/6
f 464/2/6 465/2/6 467/2/6
f 467/2/6 465/2/6 468/2/6
f 466/2/6 467/2/6 469/2/6
f 469/2/6 467/2/6 470/2/6
f 471/1/6 472/1/6 473/1/6
f 473/1/6 472/1/6 474/1/6
f 471/1/6 473/1/6 478/1/6
f 474/2/6 475/2/6 479/2/6
f 479/2/6 475/2/6 480/2/6
f 476/2/6 477/2/6 482/2/6
f 482/2/6 477/2/6 483/2/6
f 471/1/6 478/1/6 484/1/6
f 478/1/6 479/1/6 484/1/6
f 481/2/6 482/2/6 485/2/6
f 485/2/6 482/2/6 486/2/6
f 483/1/6 484/1/6 487/1/6
f 484/1/6 479/1/6 488/1/6
f 487/1/6 484/1/6 488/1/6
f 486/1/6 487/1/6 490/1/6
f 490/1/6 487/1/6 491/1/6
f 488/1/6 479/1/6 492/1/6
f 492/1/6 479/1/6 493/1/6
f 489/1/6 490/1/6 495/1/6
f 495/1/6 490/1/6 496/1/6
f 494/2/6 495/2/6 498/2/6
f 498/2/6 495/2/6 499/2/6
f 496/1/6 490/1/6 500/1/6
f 500/1/6 490/1/6 501/1/6
f 498/1/6 499/1/6 502/1/6
f 497/1/6 498/1/6 502/1/6
f 499/2/6 500/2/6 502/2/6
f 502/2/6 500/2/6 503/2/6
f 497/1/6 502/1/6 504/1/6
f 504/1/6 502/1/6 505/1/6
f 505/1/6 506/1/6 507/1/6
f 507/1/6 506/1/6 508/1/6
f 509/2/6 510/2/6 511/2/6
f 511/2/6 510/2/6 512/2/6
f 513/2/6 514/2/6 515/2/6
f 515/2/6 514/2/6 516/2/6
f 516/2/6 517/2/6 518/2/6
f 518/2/6 517/2/6 519/2/6
f 520/2/6 521/2/6 522/2/6
f 522/2/6 521/2/6 523/2/6
