# MagicaVoxel @ Ephtracy

# group
o 

# material
mtllib flower-3.mtl
usemtl palette

# normals
vn -1 0 0
vn 1 0 0
vn 0 0 1
vn 0 0 -1
vn 0 -1 0
vn 0 1 0

# texcoords
vt 0.767578 0.5
vt 0.892578 0.5
vt 0.994141 0.5

# verts
v -1 1 0
v -1 1 -0.3
v -1 1.1 0
v -1 1.1 -0.3
v -0.9 1 0.3
v -0.9 1 0
v -0.9 1.1 0.3
v -0.9 1.1 0
v -0.9 1.1 -0.2
v -0.9 1.2 0
v -0.9 1.2 -0.2
v -0.8 1 0.4
v -0.8 1 0.3
v -0.8 1.1 0.3
v -0.8 1.1 0.1
v -0.8 1.1 -0.2
v -0.8 1.1 -0.3
v -0.8 1.2 0.4
v -0.8 1.2 0.1
v -0.8 1.2 -0.2
v -0.8 1.2 -0.3
v -0.7 1 0.5
v -0.7 1 0.4
v -0.7 1 -0.3
v -0.7 1 -0.4
v -0.7 1.1 0.1
v -0.7 1.1 0
v -0.7 1.2 0.5
v -0.7 1.2 0.4
v -0.7 1.2 0.1
v -0.7 1.2 0
v -0.7 1.2 -0.3
v -0.7 1.2 -0.4
v -0.6 1 0.7
v -0.6 1 0.5
v -0.6 1 -0.4
v -0.6 1 -0.5
v -0.6 1.1 0.7
v -0.6 1.1 0.6
v -0.6 1.1 -0.4
v -0.6 1.1 -0.5
v -0.6 1.2 0.6
v -0.6 1.2 0.5
v -0.6 1.2 0.3
v -0.6 1.2 0.1
v -0.6 1.2 0
v -0.6 1.2 -0.2
v -0.6 1.3 0.3
v -0.6 1.3 -0.2
v -0.4 1 -0.5
v -0.4 1 -0.6
v -0.4 1.1 -0.5
v -0.4 1.1 -0.6
v -0.3 1.1 -0.4
v -0.3 1.1 -0.5
v -0.3 1.2 -0.4
v -0.3 1.2 -0.5
v -0.4 1 0.7
v -0.4 1 0.6
v -0.4 1.1 0.7
v -0.4 1.1 0.6
v -0.4 1.1 0.5
v -0.4 1.2 0.6
v -0.4 1.2 0.5
v -0.1 1 0.6
v -0.1 1 0.5
v -0.1 1 -0.4
v -0.1 1 -0.6
v -0.1 1.1 0.6
v -0.1 1.1 0.5
v -0.1 1.1 -0.5
v -0.1 1.1 -0.6
v -0.1 1.2 0.3
v -0.1 1.2 0.1
v -0.1 1.2 0
v -0.1 1.2 -0.2
v -0.1 1.2 -0.4
v -0.1 1.2 -0.5
v -0.1 1.3 0.3
v -0.1 1.3 -0.2
v 0 1 0.5
v 0 1 0.4
v 0 1 -0.3
v 0 1 -0.4
v 0 1.1 0.1
v 0 1.1 0
v 0 1.2 0.5
v 0 1.2 0.4
v 0 1.2 0.1
v 0 1.2 0
v 0 1.2 -0.3
v 0 1.2 -0.4
v 0.1 1 0.4
v 0.1 1 0.3
v 0.1 1 -0.2
v 0.1 1 -0.3
v 0.1 1.1 0
v 0.1 1.1 -0.2
v 0.1 1.2 0.4
v 0.1 1.2 0.3
v 0.1 1.2 0
v 0.1 1.2 -0.3
v 0.2 1 0
v 0.2 1 -0.2
v 0.2 1.1 0.3
v 0.2 1.1 0.1
v 0.2 1.1 0
v 0.2 1.1 -0.2
v 0.2 1.2 0.3
v 0.2 1.2 0.1
v 0.3 1 0.3
v 0.3 1 0
v 0.3 1.1 0.3
v 0.3 1.1 0
v -0.6 1 0.7
v -0.6 1.1 0.7
v -0.4 1 0.7
v -0.4 1.1 0.7
v -0.6 1.1 0.6
v -0.6 1.2 0.6
v -0.4 1 0.6
v -0.4 1.1 0.6
v -0.4 1.2 0.6
v -0.1 1 0.6
v -0.1 1.1 0.6
v -0.7 1 0.5
v -0.7 1.2 0.5
v -0.6 1 0.5
v -0.6 1.2 0.5
v -0.4 1.1 0.5
v -0.4 1.2 0.5
v -0.3 1.1 0.5
v -0.3 1.2 0.5
v -0.1 1 0.5
v -0.1 1.1 0.5
v 0 1 0.5
v 0 1.2 0.5
v -0.8 1 0.4
v -0.8 1.2 0.4
v -0.7 1 0.4
v -0.7 1.2 0.4
v 0 1 0.4
v 0 1.2 0.4
v 0.1 1 0.4
v 0.1 1.2 0.4
v -0.9 1 0.3
v -0.9 1.1 0.3
v -0.8 1 0.3
v -0.8 1.1 0.3
v -0.6 1.2 0.3
v -0.6 1.3 0.3
v -0.4 1.2 0.3
v -0.3 1.2 0.3
v -0.1 1.2 0.3
v -0.1 1.3 0.3
v 0.1 1 0.3
v 0.1 1.2 0.3
v 0.2 1.1 0.3
v 0.2 1.2 0.3
v 0.3 1 0.3
v 0.3 1.1 0.3
v -1 1 0
v -1 1.1 0
v -0.9 1 0
v -0.9 1.1 0
v -0.9 1.2 0
v -0.8 1.1 0
v -0.8 1.2 0
v -0.7 1.1 0
v -0.7 1.2 0
v 0 1.1 0
v 0 1.2 0
v 0.1 1.1 0
v 0.1 1.2 0
v -0.8 1.1 0.1
v -0.8 1.2 0.1
v -0.7 1.1 0.1
v -0.7 1.2 0.1
v 0 1.1 0.1
v 0 1.2 0.1
v 0.1 1.1 0.1
v 0.1 1.2 0.1
v 0.2 1.1 0.1
v 0.2 1.2 0.1
v 0.2 1 0
v 0.2 1.1 0
v 0.3 1 0
v 0.3 1.1 0
v -0.9 1.1 -0.2
v -0.9 1.2 -0.2
v -0.8 1.1 -0.2
v -0.8 1.2 -0.2
v -0.6 1.2 -0.2
v -0.6 1.3 -0.2
v -0.4 1.2 -0.2
v -0.3 1.2 -0.2
v -0.1 1.2 -0.2
v -0.1 1.3 -0.2
v 0.1 1 -0.2
v 0.1 1.1 -0.2
v 0.2 1 -0.2
v 0.2 1.1 -0.2
v -1 1 -0.3
v -1 1.1 -0.3
v -0.8 1 -0.3
v -0.8 1.1 -0.3
v -0.8 1.2 -0.3
v -0.7 1 -0.3
v -0.7 1.2 -0.3
v 0 1 -0.3
v 0 1.2 -0.3
v 0.1 1 -0.3
v 0.1 1.2 -0.3
v -0.7 1 -0.4
v -0.7 1.2 -0.4
v -0.6 1 -0.4
v -0.6 1.1 -0.4
v -0.4 1.1 -0.4
v -0.4 1.2 -0.4
v -0.3 1.1 -0.4
v -0.3 1.2 -0.4
v -0.1 1 -0.4
v -0.1 1.2 -0.4
v 0 1 -0.4
v 0 1.2 -0.4
v -0.6 1 -0.5
v -0.6 1.1 -0.5
v -0.4 1 -0.5
v -0.4 1.1 -0.5
v -0.3 1.1 -0.5
v -0.3 1.2 -0.5
v -0.1 1.1 -0.5
v -0.1 1.2 -0.5
v -0.4 1 -0.6
v -0.4 1.1 -0.6
v -0.1 1 -0.6
v -0.1 1.1 -0.6
v -0.6 1 0.7
v -0.4 1 0.7
v -0.4 1 0.6
v -0.1 1 0.6
v -0.7 1 0.5
v -0.6 1 0.5
v -0.4 1 0.5
v -0.3 1 0.5
v -0.1 1 0.5
v 0 1 0.5
v -0.8 1 0.4
v -0.7 1 0.4
v 0 1 0.4
v 0.1 1 0.4
v -0.9 1 0.3
v -0.8 1 0.3
v -0.4 1 0.3
v -0.3 1 0.3
v 0.1 1 0.3
v 0.3 1 0.3
v -0.8 1 0.1
v -0.6 1 0.1
v -0.1 1 0.1
v 0.1 1 0.1
v -1 1 0
v -0.9 1 0
v -0.8 1 0
v -0.6 1 0
v -0.1 1 0
v 0.1 1 0
v 0.2 1 0
v 0.3 1 0
v -0.4 1 -0.2
v -0.3 1 -0.2
v 0.1 1 -0.2
v 0.2 1 -0.2
v -1 1 -0.3
v -0.8 1 -0.3
v -0.7 1 -0.3
v 0 1 -0.3
v 0.1 1 -0.3
v -0.7 1 -0.4
v -0.6 1 -0.4
v -0.4 1 -0.4
v -0.3 1 -0.4
v -0.1 1 -0.4
v 0 1 -0.4
v -0.6 1 -0.5
v -0.4 1 -0.5
v -0.4 1 -0.6
v -0.1 1 -0.6
v -0.6 1.1 0.7
v -0.4 1.1 0.7
v -0.6 1.1 0.6
v -0.4 1.1 0.6
v -0.1 1.1 0.6
v -0.4 1.1 0.5
v -0.3 1.1 0.5
v -0.1 1.1 0.5
v -0.9 1.1 0.3
v -0.8 1.1 0.3
v 0.2 1.1 0.3
v 0.3 1.1 0.3
v -0.8 1.1 0.1
v -0.7 1.1 0.1
v 0 1.1 0.1
v 0.1 1.1 0.1
v 0.2 1.1 0.1
v -1 1.1 0
v -0.9 1.1 0
v -0.8 1.1 0
v -0.7 1.1 0
v 0 1.1 0
v 0.1 1.1 0
v 0.2 1.1 0
v 0.3 1.1 0
v -0.9 1.1 -0.2
v -0.8 1.1 -0.2
v 0.1 1.1 -0.2
v 0.2 1.1 -0.2
v -1 1.1 -0.3
v -0.8 1.1 -0.3
v -0.6 1.1 -0.4
v -0.4 1.1 -0.4
v -0.3 1.1 -0.4
v -0.6 1.1 -0.5
v -0.4 1.1 -0.5
v -0.3 1.1 -0.5
v -0.1 1.1 -0.5
v -0.4 1.1 -0.6
v -0.1 1.1 -0.6
v -0.6 1.2 0.6
v -0.4 1.2 0.6
v -0.7 1.2 0.5
v -0.6 1.2 0.5
v -0.4 1.2 0.5
v -0.3 1.2 0.5
v 0 1.2 0.5
v -0.8 1.2 0.4
v -0.7 1.2 0.4
v 0 1.2 0.4
v 0.1 1.2 0.4
v -0.6 1.2 0.3
v -0.4 1.2 0.3
v -0.3 1.2 0.3
v -0.1 1.2 0.3
v 0.1 1.2 0.3
v 0.2 1.2 0.3
v -0.8 1.2 0.1
v -0.7 1.2 0.1
v -0.6 1.2 0.1
v -0.1 1.2 0.1
v 0 1.2 0.1
v 0.1 1.2 0.1
v 0.2 1.2 0.1
v -0.9 1.2 0
v -0.8 1.2 0
v -0.7 1.2 0
v -0.6 1.2 0
v -0.1 1.2 0
v 0 1.2 0
v 0.1 1.2 0
v -0.9 1.2 -0.2
v -0.8 1.2 -0.2
v -0.6 1.2 -0.2
v -0.4 1.2 -0.2
v -0.3 1.2 -0.2
v -0.1 1.2 -0.2
v -0.8 1.2 -0.3
v -0.7 1.2 -0.3
v 0 1.2 -0.3
v 0.1 1.2 -0.3
v -0.7 1.2 -0.4
v -0.4 1.2 -0.4
v -0.3 1.2 -0.4
v -0.1 1.2 -0.4
v 0 1.2 -0.4
v -0.3 1.2 -0.5
v -0.1 1.2 -0.5
v -0.6 1.3 0.3
v -0.1 1.3 0.3
v -0.6 1.3 -0.2
v -0.1 1.3 -0.2

# faces
f 3/2/1 2/2/1 1/2/1
f 4/2/1 2/2/1 3/2/1
f 7/2/1 6/2/1 5/2/1
f 8/2/1 6/2/1 7/2/1
f 10/2/1 9/2/1 8/2/1
f 11/2/1 9/2/1 10/2/1
f 14/1/1 13/1/1 12/1/1
f 18/1/1 14/1/1 12/1/1
f 18/1/1 15/1/1 14/1/1
f 19/1/1 15/1/1 18/1/1
f 20/1/1 17/1/1 16/1/1
f 21/1/1 17/1/1 20/1/1
f 28/1/1 23/1/1 22/1/1
f 29/1/1 23/1/1 28/1/1
f 30/2/1 27/2/1 26/2/1
f 31/2/1 27/2/1 30/2/1
f 32/1/1 25/1/1 24/1/1
f 33/1/1 25/1/1 32/1/1
f 38/2/1 35/2/1 34/2/1
f 39/2/1 35/2/1 38/2/1
f 40/2/1 37/2/1 36/2/1
f 41/2/1 37/2/1 40/2/1
f 42/2/1 35/2/1 39/2/1
f 43/2/1 35/2/1 42/2/1
f 48/3/1 47/3/1 46/3/1
f 48/3/1 46/3/1 45/3/1
f 48/3/1 45/3/1 44/3/1
f 49/3/1 47/3/1 48/3/1
f 52/2/1 51/2/1 50/2/1
f 53/2/1 51/2/1 52/2/1
f 56/2/1 55/2/1 54/2/1
f 57/2/1 55/2/1 56/2/1
f 58/2/2 59/2/2 60/2/2
f 60/2/2 59/2/2 61/2/2
f 61/2/2 62/2/2 63/2/2
f 63/2/2 62/2/2 64/2/2
f 65/2/2 66/2/2 69/2/2
f 69/2/2 66/2/2 70/2/2
f 67/2/2 68/2/2 71/2/2
f 71/2/2 68/2/2 72/2/2
f 67/2/2 71/2/2 77/2/2
f 77/2/2 71/2/2 78/2/2
f 75/3/2 76/3/2 79/3/2
f 73/3/2 74/3/2 79/3/2
f 74/3/2 75/3/2 79/3/2
f 79/3/2 76/3/2 80/3/2
f 81/1/2 82/1/2 87/1/2
f 87/1/2 82/1/2 88/1/2
f 85/2/2 86/2/2 89/2/2
f 89/2/2 86/2/2 90/2/2
f 83/1/2 84/1/2 91/1/2
f 91/1/2 84/1/2 92/1/2
f 95/1/2 96/1/2 98/1/2
f 93/1/2 94/1/2 99/1/2
f 99/1/2 94/1/2 100/1/2
f 97/1/2 98/1/2 101/1/2
f 98/1/2 96/1/2 102/1/2
f 101/1/2 98/1/2 102/1/2
f 103/2/2 104/2/2 107/2/2
f 107/2/2 104/2/2 108/2/2
f 105/2/2 106/2/2 109/2/2
f 109/2/2 106/2/2 110/2/2
f 111/2/2 112/2/2 113/2/2
f 113/2/2 112/2/2 114/2/2
f 117/2/3 116/2/3 115/2/3
f 118/2/3 116/2/3 117/2/3
f 122/2/3 120/2/3 119/2/3
f 123/2/3 120/2/3 122/2/3
f 124/2/3 122/2/3 121/2/3
f 125/2/3 122/2/3 124/2/3
f 128/1/3 127/1/3 126/1/3
f 129/1/3 127/1/3 128/1/3
f 132/2/3 131/2/3 130/2/3
f 133/2/3 131/2/3 132/2/3
f 135/1/3 133/1/3 132/1/3
f 136/1/3 135/1/3 134/1/3
f 137/1/3 133/1/3 135/1/3
f 137/1/3 135/1/3 136/1/3
f 140/1/3 139/1/3 138/1/3
f 141/1/3 139/1/3 140/1/3
f 144/1/3 143/1/3 142/1/3
f 145/1/3 143/1/3 144/1/3
f 148/2/3 147/2/3 146/2/3
f 149/2/3 147/2/3 148/2/3
f 152/3/3 151/3/3 150/3/3
f 153/3/3 151/3/3 152/3/3
f 154/3/3 151/3/3 153/3/3
f 155/3/3 151/3/3 154/3/3
f 158/2/3 157/2/3 156/2/3
f 159/2/3 157/2/3 158/2/3
f 160/2/3 158/2/3 156/2/3
f 161/2/3 158/2/3 160/2/3
f 164/2/3 163/2/3 162/2/3
f 165/2/3 163/2/3 164/2/3
f 167/2/3 166/2/3 165/2/3
f 168/2/3 166/2/3 167/2/3
f 169/1/3 168/1/3 167/1/3
f 170/1/3 168/1/3 169/1/3
f 173/1/3 172/1/3 171/1/3
f 174/1/3 172/1/3 173/1/3
f 175/1/4 176/1/4 177/1/4
f 177/1/4 176/1/4 178/1/4
f 179/1/4 180/1/4 181/1/4
f 181/1/4 180/1/4 182/1/4
f 181/2/4 182/2/4 183/2/4
f 183/2/4 182/2/4 184/2/4
f 185/2/4 186/2/4 187/2/4
f 187/2/4 186/2/4 188/2/4
f 189/2/4 190/2/4 191/2/4
f 191/2/4 190/2/4 192/2/4
f 193/3/4 194/3/4 195/3/4
f 195/3/4 194/3/4 196/3/4
f 196/3/4 194/3/4 197/3/4
f 197/3/4 194/3/4 198/3/4
f 199/2/4 200/2/4 201/2/4
f 201/2/4 200/2/4 202/2/4
f 203/2/4 204/2/4 205/2/4
f 205/2/4 204/2/4 206/2/4
f 205/1/4 206/1/4 208/1/4
f 206/1/4 207/1/4 208/1/4
f 208/1/4 207/1/4 209/1/4
f 210/1/4 211/1/4 212/1/4
f 212/1/4 211/1/4 213/1/4
f 214/1/4 215/1/4 216/1/4
f 216/1/4 215/1/4 217/1/4
f 217/1/4 215/1/4 218/1/4
f 218/1/4 215/1/4 219/1/4
f 218/2/4 219/2/4 220/2/4
f 220/2/4 219/2/4 221/2/4
f 222/1/4 223/1/4 224/1/4
f 224/1/4 223/1/4 225/1/4
f 226/2/4 227/2/4 228/2/4
f 228/2/4 227/2/4 229/2/4
f 230/2/4 231/2/4 232/2/4
f 232/2/4 231/2/4 233/2/4
f 234/2/4 235/2/4 236/2/4
f 236/2/4 235/2/4 237/2/4
f 240/2/5 239/2/5 238/2/5
f 243/2/5 240/2/5 238/2/5
f 243/2/5 241/2/5 240/2/5
f 244/2/5 241/2/5 243/2/5
f 245/2/5 241/2/5 244/2/5
f 246/2/5 241/2/5 245/2/5
f 249/1/5 243/1/5 242/1/5
f 249/1/5 244/1/5 243/1/5
f 250/1/5 247/1/5 246/1/5
f 250/1/5 246/1/5 245/1/5
f 253/1/5 249/1/5 248/1/5
f 254/1/5 244/1/5 249/1/5
f 254/2/5 245/2/5 244/2/5
f 254/1/5 249/1/5 253/1/5
f 255/1/5 251/1/5 250/1/5
f 255/2/5 245/2/5 254/2/5
f 255/1/5 250/1/5 245/1/5
f 256/1/5 251/1/5 255/1/5
f 258/1/5 254/1/5 253/1/5
f 258/2/5 253/2/5 252/2/5
f 258/1/5 256/1/5 255/1/5
f 258/1/5 255/1/5 254/1/5
f 259/1/5 256/1/5 258/1/5
f 260/1/5 256/1/5 259/1/5
f 261/2/5 257/2/5 256/2/5
f 261/1/5 256/1/5 260/1/5
f 263/2/5 258/2/5 252/2/5
f 263/2/5 259/2/5 258/2/5
f 264/2/5 259/2/5 263/2/5
f 265/1/5 260/1/5 259/1/5
f 265/2/5 259/2/5 264/2/5
f 266/2/5 261/2/5 260/2/5
f 266/1/5 260/1/5 265/1/5
f 267/2/5 257/2/5 261/2/5
f 267/2/5 261/2/5 266/2/5
f 268/2/5 257/2/5 267/2/5
f 269/2/5 257/2/5 268/2/5
f 270/1/5 266/1/5 265/1/5
f 270/1/5 265/1/5 264/1/5
f 270/1/5 267/1/5 266/1/5
f 271/1/5 267/1/5 270/1/5
f 272/2/5 268/2/5 267/2/5
f 272/1/5 267/1/5 271/1/5
f 273/2/5 268/2/5 272/2/5
f 274/2/5 264/2/5 263/2/5
f 274/2/5 263/2/5 262/2/5
f 275/1/5 270/1/5 264/1/5
f 275/2/5 264/2/5 274/2/5
f 276/1/5 270/1/5 275/1/5
f 277/1/5 272/1/5 271/1/5
f 278/1/5 272/1/5 277/1/5
f 279/1/5 270/1/5 276/1/5
f 280/1/5 270/1/5 279/1/5
f 281/2/5 271/2/5 270/2/5
f 281/1/5 270/1/5 280/1/5
f 282/1/5 277/1/5 271/1/5
f 282/2/5 271/2/5 281/2/5
f 283/1/5 277/1/5 282/1/5
f 284/1/5 277/1/5 283/1/5
f 285/2/5 281/2/5 280/2/5
f 285/2/5 283/2/5 282/2/5
f 285/2/5 282/2/5 281/2/5
f 286/2/5 283/2/5 285/2/5
f 287/2/5 283/2/5 286/2/5
f 288/2/5 283/2/5 287/2/5
f 289/2/6 290/2/6 291/2/6
f 291/2/6 290/2/6 292/2/6
f 292/2/6 293/2/6 294/2/6
f 294/2/6 293/2/6 295/2/6
f 295/2/6 293/2/6 296/2/6
f 297/2/6 298/2/6 301/2/6
f 299/2/6 300/2/6 305/2/6
f 297/2/6 301/2/6 307/2/6
f 301/2/6 302/2/6 307/2/6
f 307/2/6 302/2/6 308/2/6
f 308/2/6 302/2/6 309/2/6
f 303/2/6 304/2/6 310/2/6
f 304/2/6 305/2/6 310/2/6
f 310/2/6 305/2/6 311/2/6
f 305/2/6 300/2/6 312/2/6
f 311/2/6 305/2/6 312/2/6
f 312/2/6 300/2/6 313/2/6
f 306/2/6 307/2/6 314/2/6
f 311/2/6 312/2/6 316/2/6
f 316/2/6 312/2/6 317/2/6
f 314/2/6 315/2/6 318/2/6
f 306/2/6 314/2/6 318/2/6
f 318/2/6 315/2/6 319/2/6
f 320/2/6 321/2/6 323/2/6
f 321/2/6 322/2/6 323/2/6
f 323/2/6 322/2/6 324/2/6
f 324/2/6 322/2/6 325/2/6
f 325/2/6 326/2/6 327/2/6
f 324/2/6 325/2/6 327/2/6
f 327/2/6 326/2/6 328/2/6
f 329/2/6 330/2/6 332/2/6
f 332/2/6 330/2/6 333/2/6
f 331/1/6 332/1/6 337/1/6
f 332/1/6 333/1/6 337/1/6
f 334/1/6 335/1/6 338/1/6
f 336/1/6 337/1/6 340/1/6
f 337/1/6 333/1/6 340/1/6
f 333/2/6 334/2/6 341/2/6
f 340/1/6 333/1/6 341/1/6
f 338/1/6 339/1/6 342/1/6
f 341/2/6 334/2/6 342/2/6
f 334/1/6 338/1/6 342/1/6
f 342/1/6 339/1/6 343/1/6
f 343/1/6 339/1/6 344/1/6
f 336/1/6 340/1/6 346/1/6
f 346/1/6 340/1/6 347/1/6
f 347/1/6 340/1/6 348/1/6
f 343/1/6 344/1/6 349/1/6
f 349/1/6 344/1/6 350/1/6
f 344/2/6 345/2/6 351/2/6
f 350/1/6 344/1/6 351/1/6
f 351/2/6 345/2/6 352/2/6
f 347/2/6 348/2/6 355/2/6
f 355/2/6 348/2/6 356/2/6
f 349/2/6 350/2/6 357/2/6
f 357/2/6 350/2/6 358/2/6
f 353/2/6 354/2/6 360/2/6
f 355/1/6 356/1/6 361/1/6
f 360/2/6 354/2/6 361/2/6
f 354/1/6 355/1/6 361/1/6
f 361/1/6 356/1/6 362/1/6
f 358/1/6 359/1/6 365/1/6
f 357/1/6 358/1/6 365/1/6
f 362/1/6 363/1/6 366/1/6
f 361/1/6 362/1/6 366/1/6
f 366/1/6 363/1/6 367/1/6
f 364/1/6 365/1/6 368/1/6
f 365/1/6 359/1/6 368/1/6
f 368/1/6 359/1/6 369/1/6
f 367/1/6 363/1/6 370/1/6
f 363/2/6 364/2/6 371/2/6
f 370/1/6 363/1/6 371/1/6
f 364/1/6 368/1/6 372/1/6
f 371/2/6 364/2/6 372/2/6
f 372/1/6 368/1/6 373/1/6
f 373/1/6 368/1/6 374/1/6
f 372/2/6 373/2/6 375/2/6
f 375/2/6 373/2/6 376/2/6
f 377/3/6 378/3/6 379/3/6
f 379/3/6 378/3/6 380/3/6
