# MagicaVoxel @ Ephtracy

# group
o 

# material
mtllib obstacle2.mtl
usemtl palette

# normals
vn -1 0 0
vn 1 0 0
vn 0 0 1
vn 0 0 -1
vn 0 -1 0
vn 0 1 0

# texcoords
vt 0.650391 0.5
vt 0.974609 0.5

# verts
v 2.1 1.9 2.1
v 2.1 1.9 2
v 2.1 2 2.1
v 2.1 2 2
v 2.2 1.9 2
v 2.2 1.9 1.9
v 2.2 1.9 1.8
v 2.2 2 2.1
v 2.2 2 2
v 2.2 2 1.9
v 2.2 2 1.8
v 2.2 2.1 2.1
v 2.2 2.1 1.8
v 2.3 1.9 1.8
v 2.3 1.9 1.7
v 2.3 2 1.8
v 2.3 2 1.7
v 2.4 1.9 1.7
v 2.4 1.9 1.6
v 2.4 1.9 1.5
v 2.4 1.9 1.4
v 2.4 2 1.8
v 2.4 2 1.7
v 2.4 2 1.6
v 2.4 2 1.5
v 2.4 2 1.4
v 2.4 2.1 1.8
v 2.4 2.1 1.7
v 2.4 2.1 1.6
v 2.4 2.1 1.5
v 2.3 1.9 2.1
v 2.3 1.9 1.9
v 2.3 2.1 2.1
v 2.3 2.1 1.9
v 2.4 1.9 1.9
v 2.4 1.9 1.8
v 2.4 2.1 1.9
v 2.4 2.1 1.8
v 2.5 1.9 1.8
v 2.5 1.9 1.7
v 2.5 1.9 1.5
v 2.5 1.9 1.4
v 2.5 2 1.6
v 2.5 2 1.5
v 2.5 2 1.4
v 2.5 2.1 1.8
v 2.5 2.1 1.7
v 2.5 2.1 1.6
v 2.5 2.1 1.5
v 2.6 1.9 1.7
v 2.6 1.9 1.5
v 2.6 2 1.6
v 2.6 2 1.5
v 2.6 2.1 1.7
v 2.6 2.1 1.6
v 2.1 1.9 2.1
v 2.1 2 2.1
v 2.2 2 2.1
v 2.2 2.1 2.1
v 2.3 1.9 2.1
v 2.3 2.1 2.1
v 2.3 1.9 1.9
v 2.3 2.1 1.9
v 2.4 1.9 1.9
v 2.4 2.1 1.9
v 2.4 1.9 1.8
v 2.4 2.1 1.8
v 2.5 1.9 1.8
v 2.5 2.1 1.8
v 2.5 1.9 1.7
v 2.5 2.1 1.7
v 2.6 1.9 1.7
v 2.6 2.1 1.7
v 2.1 1.9 2
v 2.1 2 2
v 2.2 1.9 2
v 2.2 2 2
v 2.2 1.9 1.8
v 2.2 2 1.8
v 2.2 2.1 1.8
v 2.3 1.9 1.8
v 2.3 2 1.8
v 2.4 2 1.8
v 2.4 2.1 1.8
v 2.3 1.9 1.7
v 2.3 2 1.7
v 2.4 1.9 1.7
v 2.4 2 1.7
v 2.5 2 1.6
v 2.5 2.1 1.6
v 2.6 2 1.6
v 2.6 2.1 1.6
v 2.4 2 1.5
v 2.4 2.1 1.5
v 2.5 1.9 1.5
v 2.5 2 1.5
v 2.5 2.1 1.5
v 2.6 1.9 1.5
v 2.6 2 1.5
v 2.4 1.9 1.4
v 2.4 2 1.4
v 2.5 1.9 1.4
v 2.5 2 1.4
v 2.1 1.9 2.1
v 2.3 1.9 2.1
v 2.1 1.9 2
v 2.2 1.9 2
v 2.2 1.9 1.9
v 2.3 1.9 1.9
v 2.4 1.9 1.9
v 2.2 1.9 1.8
v 2.3 1.9 1.8
v 2.4 1.9 1.8
v 2.5 1.9 1.8
v 2.3 1.9 1.7
v 2.4 1.9 1.7
v 2.5 1.9 1.7
v 2.6 1.9 1.7
v 2.4 1.9 1.6
v 2.5 1.9 1.6
v 2.4 1.9 1.5
v 2.5 1.9 1.5
v 2.6 1.9 1.5
v 2.4 1.9 1.4
v 2.5 1.9 1.4
v 2.1 2 2.1
v 2.2 2 2.1
v 2.1 2 2
v 2.2 2 2
v 2.3 2 1.8
v 2.4 2 1.8
v 2.3 2 1.7
v 2.4 2 1.7
v 2.5 2 1.6
v 2.6 2 1.6
v 2.4 2 1.5
v 2.5 2 1.5
v 2.6 2 1.5
v 2.4 2 1.4
v 2.5 2 1.4
v 2.2 2.1 2.1
v 2.3 2.1 2.1
v 2.3 2.1 1.9
v 2.4 2.1 1.9
v 2.2 2.1 1.8
v 2.4 2.1 1.8
v 2.5 2.1 1.8
v 2.4 2.1 1.7
v 2.5 2.1 1.7
v 2.6 2.1 1.7
v 2.4 2.1 1.6
v 2.5 2.1 1.6
v 2.6 2.1 1.6
v 2.4 2.1 1.5
v 2.5 2.1 1.5

# faces
f 3/2/1 2/2/1 1/2/1
f 4/2/1 2/2/1 3/2/1
f 9/2/1 6/2/1 5/2/1
f 10/1/1 7/1/1 6/1/1
f 10/2/1 6/2/1 9/2/1
f 11/1/1 7/1/1 10/1/1
f 12/2/1 9/2/1 8/2/1
f 12/2/1 10/2/1 9/2/1
f 12/2/1 11/2/1 10/2/1
f 13/2/1 11/2/1 12/2/1
f 16/2/1 15/2/1 14/2/1
f 17/2/1 15/2/1 16/2/1
f 23/2/1 19/2/1 18/2/1
f 24/1/1 20/1/1 19/1/1
f 24/2/1 19/2/1 23/2/1
f 25/2/1 21/2/1 20/2/1
f 25/1/1 20/1/1 24/1/1
f 26/2/1 21/2/1 25/2/1
f 27/2/1 23/2/1 22/2/1
f 28/1/1 24/1/1 23/1/1
f 28/2/1 23/2/1 27/2/1
f 29/2/1 25/2/1 24/2/1
f 29/1/1 24/1/1 28/1/1
f 30/2/1 25/2/1 29/2/1
f 31/2/2 32/2/2 33/2/2
f 33/2/2 32/2/2 34/2/2
f 35/2/2 36/2/2 37/2/2
f 37/2/2 36/2/2 38/2/2
f 41/2/2 42/2/2 44/2/2
f 44/2/2 42/2/2 45/2/2
f 39/2/2 40/2/2 46/2/2
f 46/2/2 40/2/2 47/2/2
f 43/2/2 44/2/2 48/2/2
f 48/2/2 44/2/2 49/2/2
f 50/2/2 51/2/2 52/2/2
f 52/2/2 51/2/2 53/2/2
f 50/2/2 52/2/2 54/2/2
f 54/2/2 52/2/2 55/2/2
f 58/2/3 57/2/3 56/2/3
f 60/2/3 58/2/3 56/2/3
f 60/2/3 59/2/3 58/2/3
f 61/2/3 59/2/3 60/2/3
f 64/2/3 63/2/3 62/2/3
f 65/2/3 63/2/3 64/2/3
f 68/2/3 67/2/3 66/2/3
f 69/2/3 67/2/3 68/2/3
f 72/2/3 71/2/3 70/2/3
f 73/2/3 71/2/3 72/2/3
f 74/2/4 75/2/4 76/2/4
f 76/2/4 75/2/4 77/2/4
f 78/1/4 79/1/4 81/1/4
f 79/2/4 80/2/4 82/2/4
f 81/1/4 79/1/4 82/1/4
f 82/2/4 80/2/4 83/2/4
f 83/2/4 80/2/4 84/2/4
f 85/2/4 86/2/4 87/2/4
f 87/2/4 86/2/4 88/2/4
f 89/2/4 90/2/4 91/2/4
f 91/2/4 90/2/4 92/2/4
f 93/2/4 94/2/4 96/2/4
f 96/2/4 94/2/4 97/2/4
f 95/2/4 96/2/4 98/2/4
f 98/2/4 96/2/4 99/2/4
f 100/2/4 101/2/4 102/2/4
f 102/2/4 101/2/4 103/2/4
f 106/2/5 105/2/5 104/2/5
f 107/2/5 105/2/5 106/2/5
f 108/2/5 105/2/5 107/2/5
f 109/2/5 105/2/5 108/2/5
f 111/1/5 109/1/5 108/1/5
f 112/2/5 110/2/5 109/2/5
f 112/1/5 109/1/5 111/1/5
f 113/2/5 110/2/5 112/2/5
f 115/2/5 114/2/5 113/2/5
f 115/2/5 113/2/5 112/2/5
f 116/2/5 114/2/5 115/2/5
f 117/2/5 114/2/5 116/2/5
f 119/2/5 118/2/5 117/2/5
f 119/2/5 117/2/5 116/2/5
f 120/2/5 118/2/5 119/2/5
f 121/1/5 120/1/5 119/1/5
f 122/2/5 118/2/5 120/2/5
f 122/1/5 120/1/5 121/1/5
f 123/2/5 118/2/5 122/2/5
f 124/2/5 122/2/5 121/2/5
f 125/2/5 122/2/5 124/2/5
f 126/2/6 127/2/6 128/2/6
f 128/2/6 127/2/6 129/2/6
f 130/2/6 131/2/6 132/2/6
f 132/2/6 131/2/6 133/2/6
f 134/2/6 135/2/6 137/2/6
f 137/2/6 135/2/6 138/2/6
f 136/2/6 137/2/6 139/2/6
f 139/2/6 137/2/6 140/2/6
f 141/2/6 142/2/6 143/2/6
f 141/2/6 143/2/6 145/2/6
f 143/2/6 144/2/6 145/2/6
f 145/2/6 144/2/6 146/2/6
f 146/2/6 147/2/6 148/2/6
f 148/2/6 147/2/6 149/2/6
f 148/1/6 149/1/6 151/1/6
f 149/2/6 150/2/6 152/2/6
f 151/1/6 149/1/6 152/1/6
f 152/2/6 150/2/6 153/2/6
f 151/2/6 152/2/6 154/2/6
f 154/2/6 152/2/6 155/2/6
