# MagicaVoxel @ Ephtracy

# group
o 

# material
mtllib grass.mtl
usemtl palette

# normals
vn -1 0 0
vn 1 0 0
vn 0 0 1
vn 0 0 -1
vn 0 -1 0
vn 0 1 0

# texcoords
vt 0.876953 0.5
vt 0.880859 0.5

# verts
v -0.3 -0.3 -1.6
v -0.3 -0.3 -1.8
v -0.3 0.1 -1.6
v -0.3 0.1 -1.8
v -0.1 -0.3 -1.1
v -0.1 -0.3 -1.3
v -0.1 0 -1.1
v -0.1 0 -1.3
v 0.1 -0.3 -1.4
v 0.1 -0.3 -1.6
v 0.1 0.3 -1.4
v 0.1 0.3 -1.6
v 0.4 -0.3 -1
v 0.4 -0.3 -1.2
v 0.4 -0.3 -1.8
v 0.4 -0.3 -2
v 0.4 0.2 -1.8
v 0.4 0.2 -2
v 0.4 0.3 -1
v 0.4 0.3 -1.2
v -0.1 -0.3 -1.6
v -0.1 -0.3 -1.8
v -0.1 0.1 -1.6
v -0.1 0.1 -1.8
v 0.1 -0.3 -1.1
v 0.1 -0.3 -1.3
v 0.1 0 -1.1
v 0.1 0 -1.3
v 0.3 -0.3 -1.4
v 0.3 -0.3 -1.6
v 0.3 0.3 -1.4
v 0.3 0.3 -1.6
v 0.6 -0.3 -1
v 0.6 -0.3 -1.2
v 0.6 -0.3 -1.8
v 0.6 -0.3 -2
v 0.6 0.2 -1.8
v 0.6 0.2 -2
v 0.6 0.3 -1
v 0.6 0.3 -1.2
v 0.4 -0.3 -1
v 0.4 0.3 -1
v 0.6 -0.3 -1
v 0.6 0.3 -1
v -0.1 -0.3 -1.1
v -0.1 0 -1.1
v 0.1 -0.3 -1.1
v 0.1 0 -1.1
v 0.1 -0.3 -1.4
v 0.1 0.3 -1.4
v 0.3 -0.3 -1.4
v 0.3 0.3 -1.4
v -0.3 -0.3 -1.6
v -0.3 0.1 -1.6
v -0.1 -0.3 -1.6
v -0.1 0.1 -1.6
v 0.4 -0.3 -1.8
v 0.4 0.2 -1.8
v 0.6 -0.3 -1.8
v 0.6 0.2 -1.8
v 0.4 -0.3 -1.2
v 0.4 0.3 -1.2
v 0.6 -0.3 -1.2
v 0.6 0.3 -1.2
v -0.1 -0.3 -1.3
v -0.1 0 -1.3
v 0.1 -0.3 -1.3
v 0.1 0 -1.3
v 0.1 -0.3 -1.6
v 0.1 0.3 -1.6
v 0.3 -0.3 -1.6
v 0.3 0.3 -1.6
v -0.3 -0.3 -1.8
v -0.3 0.1 -1.8
v -0.1 -0.3 -1.8
v -0.1 0.1 -1.8
v 0.4 -0.3 -2
v 0.4 0.2 -2
v 0.6 -0.3 -2
v 0.6 0.2 -2
v 0.4 -0.3 -1
v 0.6 -0.3 -1
v -0.1 -0.3 -1.1
v 0.1 -0.3 -1.1
v 0.4 -0.3 -1.2
v 0.6 -0.3 -1.2
v -0.1 -0.3 -1.3
v 0.1 -0.3 -1.3
v 0.1 -0.3 -1.4
v 0.3 -0.3 -1.4
v -0.3 -0.3 -1.6
v -0.1 -0.3 -1.6
v 0.1 -0.3 -1.6
v 0.3 -0.3 -1.6
v -0.3 -0.3 -1.8
v -0.1 -0.3 -1.8
v 0.4 -0.3 -1.8
v 0.6 -0.3 -1.8
v 0.4 -0.3 -2
v 0.6 -0.3 -2
v -0.1 0 -1.1
v 0.1 0 -1.1
v -0.1 0 -1.3
v 0.1 0 -1.3
v -0.3 0.1 -1.6
v -0.1 0.1 -1.6
v -0.3 0.1 -1.8
v -0.1 0.1 -1.8
v 0.4 0.2 -1.8
v 0.6 0.2 -1.8
v 0.4 0.2 -2
v 0.6 0.2 -2
v 0.4 0.3 -1
v 0.6 0.3 -1
v 0.4 0.3 -1.2
v 0.6 0.3 -1.2
v 0.1 0.3 -1.4
v 0.3 0.3 -1.4
v 0.1 0.3 -1.6
v 0.3 0.3 -1.6

# faces
f 3/1/1 2/1/1 1/1/1
f 4/1/1 2/1/1 3/1/1
f 7/2/1 6/2/1 5/2/1
f 8/2/1 6/2/1 7/2/1
f 11/2/1 10/2/1 9/2/1
f 12/2/1 10/2/1 11/2/1
f 17/1/1 16/1/1 15/1/1
f 18/1/1 16/1/1 17/1/1
f 19/1/1 14/1/1 13/1/1
f 20/1/1 14/1/1 19/1/1
f 21/1/2 22/1/2 23/1/2
f 23/1/2 22/1/2 24/1/2
f 25/2/2 26/2/2 27/2/2
f 27/2/2 26/2/2 28/2/2
f 29/2/2 30/2/2 31/2/2
f 31/2/2 30/2/2 32/2/2
f 35/1/2 36/1/2 37/1/2
f 37/1/2 36/1/2 38/1/2
f 33/1/2 34/1/2 39/1/2
f 39/1/2 34/1/2 40/1/2
f 43/1/3 42/1/3 41/1/3
f 44/1/3 42/1/3 43/1/3
f 47/2/3 46/2/3 45/2/3
f 48/2/3 46/2/3 47/2/3
f 51/2/3 50/2/3 49/2/3
f 52/2/3 50/2/3 51/2/3
f 55/1/3 54/1/3 53/1/3
f 56/1/3 54/1/3 55/1/3
f 59/1/3 58/1/3 57/1/3
f 60/1/3 58/1/3 59/1/3
f 61/1/4 62/1/4 63/1/4
f 63/1/4 62/1/4 64/1/4
f 65/2/4 66/2/4 67/2/4
f 67/2/4 66/2/4 68/2/4
f 69/2/4 70/2/4 71/2/4
f 71/2/4 70/2/4 72/2/4
f 73/1/4 74/1/4 75/1/4
f 75/1/4 74/1/4 76/1/4
f 77/1/4 78/1/4 79/1/4
f 79/1/4 78/1/4 80/1/4
f 85/1/5 82/1/5 81/1/5
f 86/1/5 82/1/5 85/1/5
f 87/2/5 84/2/5 83/2/5
f 88/2/5 84/2/5 87/2/5
f 93/2/5 90/2/5 89/2/5
f 94/2/5 90/2/5 93/2/5
f 95/1/5 92/1/5 91/1/5
f 96/1/5 92/1/5 95/1/5
f 99/1/5 98/1/5 97/1/5
f 100/1/5 98/1/5 99/1/5
f 101/2/6 102/2/6 103/2/6
f 103/2/6 102/2/6 104/2/6
f 105/1/6 106/1/6 107/1/6
f 107/1/6 106/1/6 108/1/6
f 109/1/6 110/1/6 111/1/6
f 111/1/6 110/1/6 112/1/6
f 113/1/6 114/1/6 115/1/6
f 115/1/6 114/1/6 116/1/6
f 117/2/6 118/2/6 119/2/6
f 119/2/6 118/2/6 120/2/6
